<?xml version="1.0" encoding="UTF-8"?>
<svg version="1.1" xmlns="http://www.w3.org/2000/svg" width="800" height="120">
<path d="M0 0 C264 0 528 0 800 0 C800 39.6 800 79.2 800 120 C536 120 272 120 0 120 C0 80.4 0 40.8 0 0 Z " fill="#FCFCFC" transform="translate(0,0)"/>
<path d="M0 0 C35.31 0 70.62 0 107 0 C110.96 7.26 114.92 14.52 119 22 C122.35740379 27.59567299 125.7100453 33.17000972 129.15625 38.70703125 C130.23978093 40.47478719 131.31990116 42.24457355 132.3984375 44.01538086 C133.14072318 45.22636599 133.8895769 46.43334663 134.64453125 47.63647461 C135.74916933 49.39995719 136.82959511 51.17636481 137.90625 52.95703125 C138.54884766 53.99835205 139.19144531 55.03967285 139.85351562 56.11254883 C141 59 141 59 140.33666992 61.61279297 C139.89556885 62.40057129 139.45446777 63.18834961 139 64 C138.63624268 64.70423096 138.27248535 65.40846191 137.89770508 66.1340332 C137.50478271 66.82843506 137.11186035 67.52283691 136.70703125 68.23828125 C136.26697754 69.01768066 135.82692383 69.79708008 135.37353516 70.60009766 C133.15837532 74.47052445 130.9299091 78.33279676 128.6875 82.1875 C124.09181551 90.10653878 119.53465501 98.04576909 115 106 C112.36 110.62 109.72 115.24 107 120 C71.69 120 36.38 120 0 120 C0 80.4 0 40.8 0 0 Z " fill="#0199FD" transform="translate(0,0)"/>
<path d="M0 0 C12.21 0 24.42 0 37 0 C44.5811413 7.99093272 44.5811413 7.99093272 46.36132812 13.96142578 C47.2494361 16.79617411 48.67642657 19.20286879 50.1875 21.75 C50.63609375 22.60335938 51.0846875 23.45671875 51.546875 24.3359375 C53.77628165 28.42318303 56.28269879 32.34344481 58.77734375 36.2734375 C60.21955946 39.48962462 60.11718221 40.70697245 59 44 C58.02734375 46.23828125 58.02734375 46.23828125 56.9375 48.3125 C56.57527344 49.00988281 56.21304688 49.70726562 55.83984375 50.42578125 C55.56269531 50.94527344 55.28554688 51.46476562 55 52 C54.34 52 53.68 52 53 52 C51.92474806 54.65228812 50.90543849 57.28368454 50 60 C57.26 60 64.52 60 72 60 C72.66 58.35 73.32 56.7 74 55 C75.10654123 52.87490756 76.25454672 50.77102416 77.4375 48.6875 C78.33275391 47.08455078 78.33275391 47.08455078 79.24609375 45.44921875 C79.82488281 44.64097656 80.40367188 43.83273438 81 43 C81.99 43 82.98 43 84 43 C86.34423658 45.75682222 88.10869961 48.91988223 90 52 C90.44472656 52.65355469 90.88945313 53.30710938 91.34765625 53.98046875 C92.5 55.75 92.5 55.75 94 59 C93.29296875 61.1875 93.29296875 61.1875 92 64 C91.78746582 64.62165039 91.57493164 65.24330078 91.35595703 65.88378906 C89.55582262 71.11986979 87.50689658 76.55046379 83 80 C79.19695525 80.75956128 75.53906406 80.45634224 71.6875 80.1875 C64.30119117 79.62151171 64.30119117 79.62151171 57.93359375 82.76416016 C54.16912321 87.76134743 51.72278829 93.42618481 49.27636719 99.15429688 C47.29943386 103.56193554 44.821417 107.62958459 42.3125 111.75 C41.49529963 113.14015848 40.67881609 114.53073878 39.86328125 115.921875 C38 119 38 119 37 120 C24.79 120 12.58 120 0 120 C0 80.4 0 40.8 0 0 Z " fill="#87C4F1" transform="translate(0,0)"/>
<path d="M0 0 C1.22244667 0.00333092 1.22244667 0.00333092 2.46958923 0.00672913 C3.85090782 0.00684242 3.85090782 0.00684242 5.26013184 0.00695801 C6.2611644 0.01211929 7.26219696 0.01728058 8.29356384 0.02259827 C9.31316696 0.02401321 10.33277008 0.02542816 11.38327026 0.02688599 C14.65417867 0.03250355 17.92501972 0.04505902 21.19590759 0.05775452 C23.40749515 0.06276725 25.61908377 0.06733055 27.83067322 0.07142639 C33.26494116 0.08247868 38.69916957 0.09923389 44.13340759 0.12025452 C43.41870917 3.18156229 42.470036 5.56102832 40.90293884 8.29603577 C40.45386169 9.08445862 40.00478455 9.87288147 39.542099 10.68519592 C39.07723083 11.48876526 38.61236267 12.29233459 38.13340759 13.12025452 C37.70076599 13.87355042 37.26812439 14.62684631 36.82237244 15.40296936 C35.49434421 17.70797224 34.15856169 20.00832593 32.82090759 22.30775452 C28.22522311 30.22679329 23.6680626 38.1660236 19.13340759 46.12025452 C16.49340759 50.74025452 13.85340759 55.36025452 11.13340759 60.12025452 C-11.96659241 60.12025452 -35.06659241 60.12025452 -58.86659241 60.12025452 C-56.22659241 55.17025452 -53.58659241 50.22025452 -50.86659241 45.12025452 C-49.79280334 42.83216858 -48.71901428 40.54408264 -47.61268616 38.18666077 C-39.35635233 21.45084896 -39.35635233 21.45084896 -32.93397522 19.00209045 C-26.15251929 17.96250523 -19.54491498 18.70590887 -12.86659241 20.12025452 C-12.62038147 19.27076233 -12.37417053 18.42127014 -12.12049866 17.54603577 C-10.75813806 13.82394779 -8.92210973 10.63065469 -6.80409241 7.30775452 C-6.25785217 6.43086975 -6.25785217 6.43086975 -5.70057678 5.53627014 C-2.32383538 0.14971222 -2.32383538 0.14971222 0 0 Z " fill="#01558A" transform="translate(95.86659240722656,59.87974548339844)"/>
<path d="M0 0 C7.33497827 5.9496444 9.89719923 13.24352783 11.75 22.3125 C11.75 26.6025 11.75 30.8925 11.75 35.3125 C-5.41 35.3125 -22.57 35.3125 -40.25 35.3125 C-38.46323381 46.22778129 -38.46323381 46.22778129 -32.25 54.3125 C-26.4810671 57.8892384 -21.01763428 59.00954098 -14.25 58.3125 C-9.0277429 56.63075619 -5.84804622 54.43967067 -2.25 50.3125 C-1.755 49.3225 -1.755 49.3225 -1.25 48.3125 C0.20880109 48.45357747 1.66703551 48.60052415 3.125 48.75 C3.93710937 48.83121094 4.74921875 48.91242188 5.5859375 48.99609375 C7.75 49.3125 7.75 49.3125 9.75 50.3125 C8.92167074 56.2028414 6.10914686 59.41759441 1.75 63.3125 C-7.23895189 69.08301013 -17.15126664 70.84891565 -27.6796875 68.8515625 C-35.84986076 66.44857036 -42.42138039 61.28717277 -47.25 54.3125 C-52.64778013 42.82398149 -54.41401024 29.77113107 -51 17.32421875 C-47.26033997 7.29335981 -40.89800816 -0.04216274 -31.25 -4.6875 C-20.34260741 -7.44189207 -9.31364143 -6.36518883 0 0 Z " fill="#0A0A0A" transform="translate(784.25,41.6875)"/>
<path d="M0 0 C4.53327634 3.91510229 7.31623705 8.38387776 8.18618774 14.38284302 C8.32617415 17.84025037 8.31265552 21.26322978 8.23828125 24.72265625 C8.23120651 25.97509628 8.22413177 27.22753632 8.21684265 28.51792908 C8.19372556 31.81785235 8.14895603 35.11651156 8.09332275 38.41601562 C8.04180497 41.79476602 8.01925997 45.17370287 7.99414062 48.55273438 C7.93921183 55.16070685 7.85300772 61.7676092 7.75 68.375 C4.12 68.375 0.49 68.375 -3.25 68.375 C-3.745 64.415 -3.745 64.415 -4.25 60.375 C-4.765625 61.1175 -5.28125 61.86 -5.8125 62.625 C-10.49386912 67.90654464 -15.87395228 70.03485877 -22.86328125 70.578125 C-31.92854249 70.73555356 -37.77731389 69.04423739 -44.70703125 63.16796875 C-48.78887387 58.42476429 -49.68125019 54.02480901 -49.6875 47.875 C-49.70683594 46.6065625 -49.72617187 45.338125 -49.74609375 44.03125 C-49.08184788 39.13570567 -47.15227516 36.15369348 -43.56640625 32.80078125 C-34.39795764 26.98116465 -23.49120067 26.07856838 -12.89868164 25.10864258 C-9.27806994 24.75194246 -7.33841203 24.43394135 -4.25 22.375 C-3.41380483 17.79840493 -3.64172672 12.28740992 -6.25 8.375 C-12.75922419 5.65802294 -19.30989361 5.70736506 -26.25 6.375 C-30.20715749 8.21712504 -31.73553255 9.62819241 -34.1875 13.1875 C-34.868125 13.909375 -35.54875 14.63125 -36.25 15.375 C-40.40395838 15.30082217 -43.6847874 14.51412756 -47.25 12.375 C-46.3306289 7.16135122 -43.02221975 3.90104802 -39.25 0.375 C-27.35661089 -7.51645478 -12.26887611 -6.13443805 0 0 Z " fill="#080808" transform="translate(575.25,40.625)"/>
<path d="M0 0 C5.72126141 4.15647196 10.37933186 8.31647213 13 15 C13.87806276 22.26181637 14.20614445 30.0068211 10.2734375 36.421875 C7.14175048 40.30286137 3.48946582 42.85202282 -1 45 C-0.34773438 45.27972656 0.30453125 45.55945312 0.9765625 45.84765625 C7.89286499 49.02017848 12.7612262 52.37526658 16.12890625 59.33203125 C18.36565737 66.18270845 17.97718886 73.82919418 15 80.375 C10.87329428 87.49559026 4.86089223 92.55711765 -2.8984375 95.34375 C-13.83643828 97.6580877 -26.6835762 97.35445223 -36.421875 91.55859375 C-41.80534103 87.76729659 -45.87122344 83.32214546 -48 77 C-48 75.02 -48 73.04 -48 71 C-44.04 71 -40.08 71 -36 71 C-35.608125 72.051875 -35.21625 73.10375 -34.8125 74.1875 C-32.7742919 78.89252243 -30.04981813 81.95009315 -25.4375 84.3125 C-17.2597896 85.94804208 -10.18755407 85.80222632 -2.7421875 81.875 C-1 81 -1 81 1 81 C1.68620031 79.67661368 2.34786461 78.34050052 3 77 C3.37125 76.236875 3.7425 75.47375 4.125 74.6875 C5.68256604 69.90354717 5.57601515 66.27203346 3.5 61.6875 C3.005 60.800625 2.51 59.91375 2 59 C2 58.34 2 57.68 2 57 C-6.89963918 52.17936211 -15.08773867 51.37429112 -25 51 C-25 47.37 -25 43.74 -25 40 C-23.99839844 39.97421875 -22.99679688 39.9484375 -21.96484375 39.921875 C-11.81212661 39.62824203 -11.81212661 39.62824203 -3 35 C1.01279195 30.58592885 1.35288855 26.2660049 1.27734375 20.5078125 C0.86211988 16.753253 -0.45584659 14.74500763 -3 12 C-9.48240555 8.11614495 -15.62711923 8.08468792 -23 9 C-27.57499226 10.78219848 -30.28551581 12.92827372 -33 17 C-33.39013716 18.9896995 -33.73202649 20.99019869 -34 23 C-37.96 23 -41.92 23 -46 23 C-46 15.81229314 -44.84792231 12.07333701 -39.9765625 6.81640625 C-29.20347369 -3.20293402 -13.68092611 -6.8190196 0 0 Z " fill="#090909" transform="translate(218,14)"/>
<path d="M0 0 C11.88 0 23.76 0 36 0 C34.47274401 3.81813998 32.91383201 7.11750127 30.91796875 10.67578125 C30.31533203 11.75150391 29.71269531 12.82722656 29.09179688 13.93554688 C28.46337891 15.04994141 27.83496094 16.16433594 27.1875 17.3125 C26.57068359 18.41529297 25.95386719 19.51808594 25.31835938 20.65429688 C22.40508629 25.83998489 19.45251227 30.97702296 16.26635742 35.99975586 C13.62817119 40.16683891 11.08258482 44.38571753 8.5625 48.625 C7.99595703 49.54023437 7.42941406 50.45546875 6.84570312 51.3984375 C6.32041016 52.29046875 5.79511719 53.1825 5.25390625 54.1015625 C4.53182983 55.29773193 4.53182983 55.29773193 3.79516602 56.51806641 C2.67996198 59.99892741 3.54929016 61.69211779 5 65 C6.02635675 66.9891012 7.10681544 68.95091529 8.23046875 70.88671875 C8.86919922 71.99080078 9.50792969 73.09488281 10.16601562 74.23242188 C10.49899658 74.8014624 10.83197754 75.37050293 11.17504883 75.95678711 C12.17280119 77.66237344 13.16166705 79.37314826 14.15039062 81.08398438 C17.78281337 87.33639635 21.52710131 93.48837286 25.48095703 99.54296875 C27.52009973 102.84125421 29.19043618 106.2772247 30.8671875 109.76953125 C31.89845948 111.80007021 33.01774122 113.63029589 34.3125 115.5 C36 118 36 118 36 120 C24.12 120 12.24 120 0 120 C0 80.4 0 40.8 0 0 Z " fill="#FCFEFD" transform="translate(0,0)"/>
<path d="M0 0 C3.96 0 7.92 0 12 0 C20.61144773 23.82305268 20.61144773 23.82305268 24.3125 34.4375 C27.38349254 43.23687594 30.45667578 52.03544966 33.54672241 60.82815552 C34.09777629 62.39782968 34.64776872 63.96787688 35.19668579 65.53829956 C35.96959545 67.74913841 36.74610047 69.95868337 37.5234375 72.16796875 C37.75853531 72.84301453 37.99363312 73.5180603 38.2358551 74.21356201 C39.18697546 77.35356793 39.18697546 77.35356793 41 80 C41.39832031 78.7934375 41.79664063 77.586875 42.20703125 76.34375 C42.74210565 74.72913954 43.27726652 73.11455773 43.8125 71.5 C44.07353516 70.70851563 44.33457031 69.91703125 44.60351562 69.1015625 C46.04983017 64.74476312 47.56303545 60.42731107 49.19360352 56.13623047 C56.20080673 37.57340027 62.57351834 18.76961972 69 0 C73.29 0 77.58 0 82 0 C79.87098725 6.48560365 77.60394686 12.90552548 75.25 19.3125 C72.58133992 26.60375952 69.97401248 33.91179363 67.4375 41.25 C64.70411789 49.1335923 61.75284248 56.91296613 58.6953125 64.67578125 C54.61234044 75.04653029 50.78528963 85.51765949 47 96 C42.71 96 38.42 96 34 96 C29.13650724 82.96982316 24.45078164 69.8800085 19.82104492 56.76538086 C19.59090195 56.11421295 19.36075897 55.46304504 19.12364197 54.79214478 C18.49480152 53.01247894 17.866993 51.23244857 17.23925781 49.45239258 C15.86366324 45.62018555 14.43850233 41.80892317 13 38 C12.48856093 36.64221914 11.97725037 35.28438986 11.46606445 33.92651367 C11.20602127 33.23607468 10.94597809 32.54563568 10.67805481 31.83427429 C9.52178817 28.76001298 8.37037996 25.6839408 7.21948242 22.60766602 C6.61122402 20.98460664 6.00117644 19.36221674 5.3894043 17.74047852 C4.50108805 15.38467426 3.61906568 13.02659759 2.73828125 10.66796875 C2.3258593 9.58046577 2.3258593 9.58046577 1.90510559 8.47099304 C0.80382431 5.50590965 0 3.1905475 0 0 Z " fill="#080808" transform="translate(242,13)"/>
<path d="M0 0 C19.14 0 38.28 0 58 0 C58 3.63 58 7.26 58 11 C42.82 11 27.64 11 12 11 C12 21.89 12 32.78 12 44 C25.86 44 39.72 44 54 44 C54 47.3 54 50.6 54 54 C40.14 54 26.28 54 12 54 C12 68.19 12 82.38 12 97 C8.04 97 4.08 97 0 97 C0 64.99 0 32.98 0 0 Z " fill="#0A0A0A" transform="translate(363,12)"/>
<path d="M0 0 C7.16054286 7.54759923 8.02114716 15.64487371 7.80078125 25.6640625 C7.79370651 26.89289154 7.78663177 28.12172058 7.77934265 29.38778687 C7.75154357 33.27999941 7.68882717 37.17072846 7.625 41.0625 C7.59989864 43.71482285 7.57708872 46.36716844 7.55664062 49.01953125 C7.50176357 55.49275172 7.41558748 61.96487508 7.3125 68.4375 C3.6825 68.4375 0.0525 68.4375 -3.6875 68.4375 C-3.70208252 66.92921631 -3.71666504 65.42093262 -3.73168945 63.86694336 C-3.7897909 58.25521489 -3.8670239 52.64388269 -3.94995117 47.0324707 C-3.98314466 44.60675502 -4.01119384 42.18096314 -4.03393555 39.75512695 C-4.06758331 36.26220316 -4.11990631 32.76997415 -4.17578125 29.27734375 C-4.18217117 28.19791 -4.1885611 27.11847626 -4.19514465 26.0063324 C-4.31014446 20.07727448 -4.72795673 15.63161383 -7.6875 10.4375 C-12.4473733 6.64902941 -16.21628586 5.84173796 -22.2578125 6.1171875 C-27.14603955 6.76161615 -30.48775949 8.20533407 -34 11.8125 C-36.69411455 16.00334485 -37.92907817 19.51929224 -38.00634766 24.50317383 C-38.02621735 25.48381302 -38.04608704 26.46445221 -38.06655884 27.47480774 C-38.08388565 29.04382088 -38.08388565 29.04382088 -38.1015625 30.64453125 C-38.12092865 31.72506271 -38.1402948 32.80559418 -38.1602478 33.91886902 C-38.21992103 37.3624996 -38.26638041 40.80616383 -38.3125 44.25 C-38.35069101 46.58790502 -38.3897434 48.92579615 -38.4296875 51.26367188 C-38.52561271 56.98816805 -38.60968944 62.7127301 -38.6875 68.4375 C-42.3175 68.4375 -45.9475 68.4375 -49.6875 68.4375 C-49.6875 44.6775 -49.6875 20.9175 -49.6875 -3.5625 C-46.0575 -3.5625 -42.4275 -3.5625 -38.6875 -3.5625 C-38.3575 -0.2625 -38.0275 3.0375 -37.6875 6.4375 C-37.15125 5.53 -36.615 4.6225 -36.0625 3.6875 C-33.53002012 -0.11121981 -30.28310965 -2.71046292 -25.890625 -4.15234375 C-16.44494933 -5.9108472 -8.24173842 -4.79170838 0 0 Z " fill="#050505" transform="translate(646.6875,40.5625)"/>
<path d="M0 0 C7.20234046 4.4095962 11.59790891 8.61501257 14.0625 16.875 C14.57065442 21.19012743 14.5305916 25.44523178 14.453125 29.78515625 C14.44746521 30.99320419 14.44180542 32.20125214 14.43597412 33.44590759 C14.41371353 37.27685386 14.36353374 41.10683986 14.3125 44.9375 C14.29242179 47.54621038 14.27417334 50.15493553 14.2578125 52.76367188 C14.21388213 59.13448049 14.14492397 65.50457784 14.0625 71.875 C10.4325 71.875 6.8025 71.875 3.0625 71.875 C3.04791748 70.36147949 3.03333496 68.84795898 3.01831055 67.28857422 C2.96026193 61.66382428 2.88302854 56.0394719 2.80004883 50.41503906 C2.76683053 47.9824876 2.73878901 45.54985963 2.71606445 43.1171875 C2.68246242 39.61685642 2.63014166 36.11722445 2.57421875 32.6171875 C2.56782883 31.53259247 2.5614389 30.44799744 2.55485535 29.33053589 C2.44602581 23.71918407 2.11090528 19.76197927 -0.9375 14.875 C-1.4325 13.39 -1.4325 13.39 -1.9375 11.875 C-7.4451191 9.04676317 -13.90563293 9.20387193 -19.9375 9.875 C-24.41620656 12.03437638 -27.11948188 14.80452939 -29.9375 18.875 C-30.90991945 21.79225834 -31.08917819 23.76303439 -31.14282227 26.80541992 C-31.16276749 27.80623093 -31.18271271 28.80704193 -31.20326233 29.83818054 C-31.21997482 30.91638565 -31.23668732 31.99459076 -31.25390625 33.10546875 C-31.27468735 34.21102615 -31.29546844 35.31658356 -31.31687927 36.4556427 C-31.38232332 39.9911979 -31.44123603 43.52682806 -31.5 47.0625 C-31.5431901 49.45769008 -31.58680454 51.85287255 -31.63085938 54.24804688 C-31.73799952 60.12362088 -31.83928168 65.99927036 -31.9375 71.875 C-35.5675 71.875 -39.1975 71.875 -42.9375 71.875 C-42.9375 48.115 -42.9375 24.355 -42.9375 -0.125 C-39.6375 -0.125 -36.3375 -0.125 -32.9375 -0.125 C-32.9375 3.505 -32.9375 7.135 -32.9375 10.875 C-32.2775 10.875 -31.6175 10.875 -30.9375 10.875 C-30.7725 10.17375 -30.6075 9.4725 -30.4375 8.75 C-24.96748025 -1.73420452 -10.41043598 -4.04982635 0 0 Z " fill="#040404" transform="translate(500.9375,37.125)"/>
<path d="M0 0 C4.63163937 3.72063677 7.87084583 7.77011732 9.75 13.45703125 C9.75 14.44703125 9.75 15.43703125 9.75 16.45703125 C5.97527547 16.94062585 2.50666418 17.14713669 -1.25 16.45703125 C-3.30751043 14.63332882 -4.48858407 12.88611946 -5.8359375 10.5 C-7.6692599 7.85130494 -9.33606308 6.81798173 -12.25 5.45703125 C-18.65755586 4.38633863 -24.67598068 4.52651286 -30.3125 7.95703125 C-35.36669445 11.86128054 -37.28375639 16.55830042 -39.25 22.45703125 C-39.95752014 34.07891937 -40.0723056 43.35059733 -32.75 52.89453125 C-29.40411529 56.32406308 -27.59735656 57.32624946 -22.7890625 57.79296875 C-20.85160156 57.81230469 -20.85160156 57.81230469 -18.875 57.83203125 C-16.94527344 57.87457031 -16.94527344 57.87457031 -14.9765625 57.91796875 C-10.65142657 57.38299387 -8.58474535 56.21648427 -5.25 53.45703125 C-3.7628497 51.62383879 -3.7628497 51.62383879 -2.875 49.70703125 C-2.33875 48.63453125 -1.8025 47.56203125 -1.25 46.45703125 C2.38 46.45703125 6.01 46.45703125 9.75 46.45703125 C8.46601047 52.8769789 6.09878661 58.04300057 1.5 62.76953125 C-2.25572821 65.07418265 -6.19235906 66.75904005 -10.25 68.45703125 C-11.24 68.95203125 -11.24 68.95203125 -12.25 69.45703125 C-22.73359538 70.30749453 -31.14252439 68.87559496 -39.40234375 62.17578125 C-46.99619296 55.11173547 -51.02262627 46.79908439 -51.6328125 36.43359375 C-52.2306426 18.26053064 -52.2306426 18.26053064 -47.25 10.45703125 C-46.76402344 9.67328125 -46.27804687 8.88953125 -45.77734375 8.08203125 C-41.40972425 1.80422355 -35.66616185 -2.7151543 -28.36328125 -5.1796875 C-18.08117385 -6.94722167 -8.64241818 -5.9266583 0 0 Z " fill="#090909" transform="translate(716.25,41.54296875)"/>
<path d="M0 0 C3.63 0 7.26 0 11 0 C11 23.76 11 47.52 11 72 C7.37 72 3.74 72 0 72 C0 48.24 0 24.48 0 0 Z " fill="#020202" transform="translate(433,37)"/>
<path d="M0 0 C0.94074234 14.88463431 0.94074234 14.88463431 -3.265625 20.37890625 C-8.25228954 25.03986522 -13.83586148 27.26668436 -20.625 27.625 C-25.95148502 27.37532101 -30.11092501 25.69150166 -34 22 C-35.3624282 17.9127154 -35.75076465 14.2643432 -35 10 C-28.55260408 1.98431859 -16.60280419 1.64262002 -7.06640625 0.33203125 C-4 0 -4 0 0 0 Z " fill="#F7F7F7" transform="translate(572,74)"/>
<path d="M0 0 C4.18418571 2.50179437 6.2643643 5.1197905 8.5625 9.4375 C9.0575 14.3875 9.0575 14.3875 9.5625 19.4375 C-3.6375 19.4375 -16.8375 19.4375 -30.4375 19.4375 C-30.4375 11.63309064 -29.34675262 9.07365913 -24.4375 3.4375 C-17.76497869 -2.95329263 -8.36863345 -3.63853628 0 0 Z " fill="#FAFAFA" transform="translate(774.4375,47.5625)"/>
<path d="M0 0 C3.5624308 -0.05827558 7.12473819 -0.09368885 10.6875 -0.125 C12.19860352 -0.15013672 12.19860352 -0.15013672 13.74023438 -0.17578125 C14.71669922 -0.18222656 15.69316406 -0.18867187 16.69921875 -0.1953125 C17.59471436 -0.20578613 18.49020996 -0.21625977 19.4128418 -0.22705078 C22.33808254 0.02967036 24.40127925 0.63277813 27 2 C28.875 5.4375 28.875 5.4375 30 9 C29.67 9.99 29.34 10.98 29 12 C27.02 9.03 25.04 6.06 23 3 C20.67151344 5.64779379 19.07939237 7.78477647 17.8515625 11.11328125 C16.34228123 15.04990979 15.21323652 17.21403238 12 20 C4.84239727 21.5813144 -2.76634305 20.72179256 -10 20 C-9.31911019 17.08014819 -8.41898766 14.64877696 -7 12 C-6.34 12 -5.68 12 -5 12 C-4.731875 11.13375 -4.46375 10.2675 -4.1875 9.375 C-3.02816286 6.08004181 -1.58770183 3.10580577 0 0 Z " fill="#4F9ECE" transform="translate(60,40)"/>
<path d="M0 0 C3.60596271 3.39972914 6.37744726 6.75669906 8.9375 11 C9.87916016 12.5159375 9.87916016 12.5159375 10.83984375 14.0625 C12 17 12 17 11.48046875 19.38671875 C9.49339495 22.8942448 7.48054933 26.37453274 5.375 29.8125 C4.95476562 30.50537109 4.53453125 31.19824219 4.1015625 31.91210938 C3.0710533 33.61010748 2.03598319 35.30533614 1 37 C-1.89523399 33.50132478 -4.44362789 29.93747606 -6.8125 26.0625 C-7.43769531 25.06347656 -8.06289062 24.06445312 -8.70703125 23.03515625 C-10.29211867 19.31427128 -10.22517188 17.83595482 -9 14 C-7.64373351 11.42256456 -6.07679305 9.02996591 -4.4375 6.625 C-4.01275391 5.98433594 -3.58800781 5.34367187 -3.15039062 4.68359375 C-2.10941258 3.1162785 -1.05595366 1.55726499 0 0 Z " fill="#DCEDF8" transform="translate(82,42)"/>
<path d="M0 0 C0.495 1.98 0.495 1.98 1 4 C0.34 4 -0.32 4 -1 4 C-1.18369141 4.84304688 -1.18369141 4.84304688 -1.37109375 5.703125 C-2.0519869 8.18986519 -2.99352325 10.40514776 -4.0625 12.75 C-4.42472656 13.54921875 -4.78695313 14.3484375 -5.16015625 15.171875 C-5.43730469 15.77515625 -5.71445312 16.3784375 -6 17 C-6.66 17 -7.32 17 -8 17 C-8.33 19.31 -8.66 21.62 -9 24 C-9.99 24.33 -10.98 24.66 -12 25 C-12.91999793 27.49838352 -12.91999793 27.49838352 -13.5 30.4375 C-14.67022901 35.78015267 -14.67022901 35.78015267 -18 38 C-18.515625 38.86625 -19.03125 39.7325 -19.5625 40.625 C-20.036875 41.40875 -20.51125 42.1925 -21 43 C-21.66 43 -22.32 43 -23 43 C-23.12246094 43.55171875 -23.24492187 44.1034375 -23.37109375 44.671875 C-24.07993611 47.29591255 -25.03611256 49.7336953 -26.0625 52.25 C-26.42472656 53.14203125 -26.78695313 54.0340625 -27.16015625 54.953125 C-27.43730469 55.62859375 -27.71445312 56.3040625 -28 57 C-28.66 57 -29.32 57 -30 57 C-30.25015873 60.41642759 -30.25015873 60.41642759 -30 64 C-29.01 64.66 -28.02 65.32 -27 66 C-25.14294737 69.82334365 -24.12261493 73.91047417 -23 78 C-26.16737522 75.23483116 -28.18923758 71.76371801 -30.3125 68.1875 C-30.69728516 67.58357422 -31.08207031 66.97964844 -31.47851562 66.35742188 C-33.20799728 63.43084909 -34.08668548 61.58492442 -33.58203125 58.1796875 C-31.3371708 53.66779514 -28.91049167 49.29206677 -26.375 44.9375 C-25.83230469 43.99648438 -25.28960937 43.05546875 -24.73046875 42.0859375 C-21.30665997 36.17356461 -17.77781148 30.34374505 -14.15625 24.55078125 C-9.20696718 16.50819666 -4.6519719 8.21669686 0 0 Z " fill="#9CC4E3" transform="translate(36,0)"/>
<path d="M0 0 C2.4375 1 2.4375 1 4 3 C4.45364856 6.1755399 4.68938436 7.98847886 4 11 C1.9375 13.5625 1.9375 13.5625 -1 15 C-4.8137751 15 -7.02424548 14.84985071 -9.9375 12.3125 C-11.33817538 9.26397123 -11.4842732 7.32073048 -11 4 C-8.04627097 -0.48966812 -5.14336369 -0.64292046 0 0 Z " fill="#0C0C0C" transform="translate(442,10)"/>
<path d="M0 0 C3.65712693 3.4293474 6.34814861 6.79790256 8.875 11.125 C9.79925781 12.67574219 9.79925781 12.67574219 10.7421875 14.2578125 C12 17 12 17 11 20 C10.67 19.01 10.34 18.02 10 17 C9.34 17 8.68 17 8 17 C7.731875 16.195625 7.46375 15.39125 7.1875 14.5625 C6.795625 13.716875 6.40375 12.87125 6 12 C5.01 11.67 4.02 11.34 3 11 C2.01 12.485 2.01 12.485 1 14 C-0.32 13.34 -1.64 12.68 -3 12 C-5.4134981 15.51968473 -6.43863728 17.72328654 -6 22 C-5.70955086 23.34332728 -5.39044206 24.68225804 -5 26 C-4.34 26 -3.68 26 -3 26 C-2.566875 26.969375 -2.13375 27.93875 -1.6875 28.9375 C-0.2985139 32.27731765 -0.2985139 32.27731765 3 33 C2.34 34.32 1.68 35.64 1 37 C-1.89523399 33.50132478 -4.44362789 29.93747606 -6.8125 26.0625 C-7.43769531 25.06347656 -8.06289062 24.06445312 -8.70703125 23.03515625 C-10.29211867 19.31427128 -10.22517188 17.83595482 -9 14 C-7.64373351 11.42256456 -6.07679305 9.02996591 -4.4375 6.625 C-4.01275391 5.98433594 -3.58800781 5.34367187 -3.15039062 4.68359375 C-2.10941258 3.1162785 -1.05595366 1.55726499 0 0 Z " fill="#D3ECFA" transform="translate(82,42)"/>
<path d="M0 0 C4.19761018 5.07993585 7.46245902 10.52859763 10.8125 16.1875 C11.42287109 17.19748047 12.03324219 18.20746094 12.66210938 19.24804688 C13.5196582 20.6934082 13.5196582 20.6934082 14.39453125 22.16796875 C14.91893799 23.04735107 15.44334473 23.9267334 15.98364258 24.83276367 C16.31904053 25.54795166 16.65443848 26.26313965 17 27 C16.67 27.66 16.34 28.32 16 29 C9.50335586 28.95842148 3.00757473 28.88618583 -3.48852539 28.79248047 C-5.69905811 28.76422981 -7.90969262 28.74303575 -10.12036133 28.72900391 C-13.29561634 28.70763131 -16.4696422 28.66100969 -19.64453125 28.609375 C-20.63524124 28.60814636 -21.62595123 28.60691772 -22.64668274 28.60565186 C-23.56741074 28.58593323 -24.48813873 28.5662146 -25.43676758 28.54589844 C-26.2472908 28.53701599 -27.05781403 28.52813354 -27.89289856 28.51898193 C-30.73904003 27.81797344 -31.49659914 26.43292118 -33 24 C-32.67 23.34 -32.34 22.68 -32 22 C-31.67 22.99 -31.34 23.98 -31 25 C-30.34 25 -29.68 25 -29 25 C-29 25.66 -29 26.32 -29 27 C-17.45 27 -5.9 27 6 27 C5.505 25.02 5.505 25.02 5 23 C4.66666667 21.66666667 4.33333333 20.33333333 4 19 C4.495 19.99 4.495 19.99 5 21 C5.66 20.67 6.32 20.34 7 20 C6.29082358 17.07631984 5.50914362 14.1883435 4.625 11.3125 C4.39039063 10.52488281 4.15578125 9.73726562 3.9140625 8.92578125 C3.61242187 8.29027344 3.31078125 7.65476562 3 7 C2.01 6.67 1.02 6.34 0 6 C0 4.02 0 2.04 0 0 Z " fill="#1397EE" transform="translate(124,32)"/>
<path d="M0 0 C0.79719955 0.00222061 1.59439911 0.00444122 2.41575623 0.00672913 C3.31661453 0.00680466 4.21747284 0.00688019 5.14562988 0.00695801 C6.12478867 0.01211929 7.10394745 0.01728058 8.11277771 0.02259827 C9.11018478 0.02401321 10.10759186 0.02542816 11.13522339 0.02688599 C14.3348027 0.03250337 17.53431315 0.04505881 20.73387146 0.05775452 C22.89728191 0.06276728 25.06069345 0.06733057 27.22410583 0.07142639 C32.53988471 0.08247845 37.85562317 0.09923348 43.17137146 0.12025452 C40.17137146 2.12025452 40.17137146 2.12025452 38.17137146 2.12025452 C38.17137146 2.78025452 38.17137146 3.44025452 38.17137146 4.12025452 C37.18137146 4.12025452 36.19137146 4.12025452 35.17137146 4.12025452 C35.17137146 3.46025452 35.17137146 2.80025452 35.17137146 2.12025452 C23.62137146 2.12025452 12.07137146 2.12025452 0.17137146 2.12025452 C-0.15862854 3.11025452 -0.48862854 4.10025452 -0.82862854 5.12025452 C-0.82862854 4.13025452 -0.82862854 3.14025452 -0.82862854 2.12025452 C-1.48862854 1.79025452 -2.14862854 1.46025452 -2.82862854 1.12025452 C-1.82862854 0.12025452 -1.82862854 0.12025452 0 0 Z " fill="#005EA1" transform="translate(95.82862854003906,59.87974548339844)"/>
<path d="M0 0 C2.96926381 3.55391974 5.42318536 7.18517995 7.75 11.1875 C8.67039062 12.75564453 8.67039062 12.75564453 9.609375 14.35546875 C11 17 11 17 11 19 C4.73 19 -1.54 19 -8 19 C-8 18.67 -8 18.34 -8 18 C-7.04287109 17.92652344 -7.04287109 17.92652344 -6.06640625 17.8515625 C-5.24011719 17.77679688 -4.41382812 17.70203125 -3.5625 17.625 C-2.73878906 17.55539063 -1.91507812 17.48578125 -1.06640625 17.4140625 C-0.38449219 17.27742188 0.29742187 17.14078125 1 17 C1.33 16.34 1.66 15.68 2 15 C2.66 15 3.32 15 4 15 C3.79503906 14.41992188 3.59007813 13.83984375 3.37890625 13.2421875 C1.85990187 8.8378016 0.5952849 4.64322223 0 0 Z " fill="#98D2FA" transform="translate(71,60)"/>
<path d="M0 0 C3.37244652 3.99697365 6.71374722 8.27090179 9 13 C8 15 8 15 5 17 C5 16.34 5 15.68 5 15 C4.236875 14.773125 3.47375 14.54625 2.6875 14.3125 C-0.63622979 12.68928313 -1.58090437 11.39006178 -3 8 C-2.6875 5.1875 -2.6875 5.1875 -2 3 C-1.34 3 -0.68 3 0 3 C0 2.01 0 1.02 0 0 Z " fill="#81C4F5" transform="translate(37,1)"/>
<path d="M0 0 C0.33 1.32 0.66 2.64 1 4 C0.34 4 -0.32 4 -1 4 C-1.12246094 4.56203125 -1.24492188 5.1240625 -1.37109375 5.703125 C-2.0519869 8.18986519 -2.99352325 10.40514776 -4.0625 12.75 C-4.42472656 13.54921875 -4.78695313 14.3484375 -5.16015625 15.171875 C-5.43730469 15.77515625 -5.71445312 16.3784375 -6 17 C-6.66 17 -7.32 17 -8 17 C-8.33 19.31 -8.66 21.62 -9 24 C-9.99 24.33 -10.98 24.66 -12 25 C-13.05464649 26.9717304 -14.04605164 28.97762948 -15 31 C-16.31431695 33.01254782 -17.64721885 35.01310269 -19 37 C-20.01059521 38.66026356 -21.01453001 40.32470102 -22 42 C-22.66 41.67 -23.32 41.34 -24 41 C-23.4743042 40.12927856 -23.4743042 40.12927856 -22.93798828 39.2409668 C-18.85849795 32.46516955 -14.85506341 25.64708201 -10.875 18.8125 C-10.26785156 17.77158203 -9.66070312 16.73066406 -9.03515625 15.65820312 C-6.00048027 10.4516512 -2.97875542 5.23875642 0 0 Z " fill="#A7CBE5" transform="translate(36,0)"/>
<path d="M0 0 C3.5624308 -0.05827558 7.12473819 -0.09368885 10.6875 -0.125 C12.19860352 -0.15013672 12.19860352 -0.15013672 13.74023438 -0.17578125 C14.71669922 -0.18222656 15.69316406 -0.18867187 16.69921875 -0.1953125 C17.59471436 -0.20578613 18.49020996 -0.21625977 19.4128418 -0.22705078 C22.33808254 0.02967036 24.40127925 0.63277813 27 2 C28.875 5.4375 28.875 5.4375 30 9 C29.67 9.99 29.34 10.98 29 12 C28.71044434 11.3510376 28.42088867 10.7020752 28.12255859 10.03344727 C26.63736614 7.24877861 25.29123439 5.18265764 23 3 C18.79533128 2.00604683 14.88864991 2.45790216 10.625 2.9375 C8.94857422 3.06995117 8.94857422 3.06995117 7.23828125 3.20507812 C4.48576865 3.42857274 1.74442207 3.69453444 -1 4 C-0.67 2.68 -0.34 1.36 0 0 Z " fill="#43A4E5" transform="translate(60,40)"/>
<path d="M0 0 C3.76607955 1.25535985 4.26441793 2.52883585 6 6 C6 6.99 6 7.98 6 9 C10.91442612 11.54515542 15.9039931 11.44153121 21.3125 11.625 C22.24384766 11.66367187 23.17519531 11.70234375 24.13476562 11.7421875 C26.42298407 11.83606313 28.71120295 11.92174509 31 12 C31 12.66 31 13.32 31 14 C27.43793278 14.14567407 23.87663449 14.23419196 20.3125 14.3125 C18.80139648 14.3753418 18.80139648 14.3753418 17.25976562 14.43945312 C9.77700342 14.56293105 9.77700342 14.56293105 5.9375 11.78125 C4.19052204 9.27349131 2.82710436 7.0154071 1.6875 4.1875 C1.36136719 3.39730469 1.03523438 2.60710938 0.69921875 1.79296875 C0.35310547 0.90544922 0.35310547 0.90544922 0 0 Z " fill="#1696EA" transform="translate(53,27)"/>
<path d="M0 0 C0.66 0 1.32 0 2 0 C2.391875 0.9075 2.78375 1.815 3.1875 2.75 C4.77456269 6.10449148 4.77456269 6.10449148 7.625 8 C10 10 10 10 10.421875 12.70703125 C11.31150301 17.77430429 14.03306812 21.67326099 16.6015625 26.07421875 C18 29 18 29 17 32 C16.48050781 31.01 15.96101563 30.02 15.42578125 29 C10.52646947 19.70378656 10.52646947 19.70378656 5.09765625 10.7109375 C0 2.76512456 0 2.76512456 0 0 Z " fill="#A2C8E5" transform="translate(14,80)"/>
<path d="M0 0 C0.33 1.32 0.66 2.64 1 4 C1.33 3.67 1.66 3.34 2 3 C2.99 3 3.98 3 5 3 C2.69 7.29 0.38 11.58 -2 16 C-2.33 16 -2.66 16 -3 16 C-2.67 12.37 -2.34 8.74 -2 5 C-2.66 4.67 -3.32 4.34 -4 4 C-2.68 2.68 -1.36 1.36 0 0 Z " fill="#135986" transform="translate(109,104)"/>
<path d="M0 0 C3.37102834 4.00648656 6.11912879 8.21589658 8.8125 12.6875 C9.44188477 13.70166992 9.44188477 13.70166992 10.08398438 14.73632812 C11.12098434 16.45327206 12.0686627 18.22352139 13 20 C12.67 20.66 12.34 21.32 12 22 C8.53084109 19.68722739 8.44908694 18.75057797 7 15 C6.29875 13.948125 5.5975 12.89625 4.875 11.8125 C3 9 3 9 3 7 C2.01 6.67 1.02 6.34 0 6 C0 4.02 0 2.04 0 0 Z " fill="#439FDC" transform="translate(124,32)"/>
<path d="M0 0 C3.13355571 2.89461355 5.24842462 5.7713477 7.3125 9.5 C7.84488281 10.4384375 8.37726562 11.376875 8.92578125 12.34375 C10.07314683 15.18087217 10.12331476 16.21470493 9 19 C8.566875 18.195625 8.13375 17.39125 7.6875 16.5625 C6.19525998 13.72153646 6.19525998 13.72153646 3 13 C2.19024679 10.30082264 1.53763515 7.75021059 1 5 C0.79375 4.01 0.5875 3.02 0.375 2 C0.25125 1.34 0.1275 0.68 0 0 Z " fill="#71C4FD" transform="translate(50,24)"/>
<path d="M0 0 C0.33 0.99 0.66 1.98 1 3 C-0.26220093 5.04563599 -1.60287726 7.04402816 -3 9 C-3.69429379 10.3191582 -4.37530495 11.64649406 -5 13 C-6.32 11.35 -7.64 9.7 -9 8 C-8.01 7.67 -7.02 7.34 -6 7 C-5.34 7.33 -4.68 7.66 -4 8 C-4 6.02 -4 4.04 -4 2 C-2.68 1.34 -1.36 0.68 0 0 Z " fill="#1D608A" transform="translate(139,60)"/>
<path d="M0 0 C3.64083526 4.18021827 6.88869424 8.85188457 9 14 C8.67 14.99 8.34 15.98 8 17 C5.25144224 14.62624557 4.3170083 12.33642103 3 9 C2.34 8.67 1.68 8.34 1 8 C0.40644386 5.35139573 0.25790731 2.70802678 0 0 Z " fill="#A0CDF0" transform="translate(71,60)"/>
<path d="M0 0 C0.33 0.99 0.66 1.98 1 3 C-0.21345293 5.30087089 -1.45183053 7.3991872 -2.875 9.5625 C-3.62283183 10.73018964 -4.37024585 11.89814699 -5.1171875 13.06640625 C-5.73851563 14.03449219 -6.35984375 15.00257812 -7 16 C-7.33 16.66 -7.66 17.32 -8 18 C-8.66 18 -9.32 18 -10 18 C-9.67 16.35 -9.34 14.7 -9 13 C-8.34 13 -7.68 13 -7 13 C-6.731875 12.29875 -6.46375 11.5975 -6.1875 10.875 C-2.88888889 2.88888889 -2.88888889 2.88888889 0 0 Z " fill="#5C9CC4" transform="translate(80,42)"/>
<path d="M0 0 C2.59037598 3.20490963 4.37943156 6.55350453 6.1875 10.25 C6.71730469 11.32765625 7.24710937 12.4053125 7.79296875 13.515625 C8.19128906 14.33546875 8.58960937 15.1553125 9 16 C8.01 16 7.02 16 6 16 C5.67 14.02 5.34 12.04 5 10 C4.34 10 3.68 10 3 10 C0.52653696 7.52653696 0.01686856 6.29238832 -0.1875 2.75 C-0.125625 1.8425 -0.06375 0.935 0 0 Z " fill="#349ADF" transform="translate(106,0)"/>
<path d="M0 0 C1.37432457 3.81756824 0.67975039 7.07255329 0 11 C-1.65 11 -3.3 11 -5 11 C-3.77472971 6.94718288 -2.30119506 3.55639236 0 0 Z " fill="#1B5A85" transform="translate(88,69)"/>
<path d="M0 0 C0.66 0 1.32 0 2 0 C3.21875 1.71484375 3.21875 1.71484375 4.5 3.9375 C6.18454879 7.05432026 6.18454879 7.05432026 9 9 C8.67 10.32 8.34 11.64 8 13 C5.27324841 10.59310197 3.88033404 8.07528977 2.3125 4.8125 C1.65701172 3.46091797 1.65701172 3.46091797 0.98828125 2.08203125 C0.66214844 1.39496094 0.33601562 0.70789062 0 0 Z " fill="#DBF7FE" transform="translate(129,39)"/>
<path d="M0 0 C2.63886669 3.18483911 5.14494105 6.2898821 7 10 C6.67 10.99 6.34 11.98 6 13 C5.67 12.01 5.34 11.02 5 10 C4.34 10 3.68 10 3 10 C0.96564469 6.27034861 0 4.33094958 0 0 Z " fill="#B1E6FE" transform="translate(87,49)"/>
<path d="M0 0 C0.99 0.33 1.98 0.66 3 1 C1.68139111 5.61513112 -0.21355437 9.09897612 -3 13 C-3.6875 11.3125 -3.6875 11.3125 -4 9 C-2.625 6.5 -2.625 6.5 -1 4 C-0.30420546 1.80869466 -0.30420546 1.80869466 0 0 Z " fill="#EEFAFD" transform="translate(19,23)"/>
<path d="M0 0 C2.475 0.495 2.475 0.495 5 1 C5.33 2.98 5.66 4.96 6 7 C5.01 7.495 5.01 7.495 4 8 C2.68 5.36 1.36 2.72 0 0 Z " fill="#96C5E4" transform="translate(32,112)"/>
<path d="M0 0 C0.66 0.33 1.32 0.66 2 1 C1.67 1.99 1.34 2.98 1 4 C0.34 4 -0.32 4 -1 4 C-1 4.66 -1 5.32 -1 6 C-2.65 6.33 -4.3 6.66 -6 7 C-4.60667426 3.63279613 -3.0210714 2.0140476 0 0 Z " fill="#DFDFDF" transform="translate(754,48)"/>
<path d="M0 0 C2.74277578 3.19990508 4.6302836 6.00499382 6 10 C5.01 9.34 4.02 8.68 3 8 C2.01 8.33 1.02 8.66 0 9 C0 6.03 0 3.06 0 0 Z " fill="#1F9FEF" transform="translate(116,18)"/>
<path d="M0 0 C3.2910841 3.60957611 4.54663921 6.12637153 5 11 C4.731875 10.360625 4.46375 9.72125 4.1875 9.0625 C3.11332248 6.66868314 3.11332248 6.66868314 0 6 C0 4.02 0 2.04 0 0 Z " fill="#2D96DA" transform="translate(124,32)"/>
<path d="M0 0 C3 1 3 1 4.75 4.375 C6 8 6 8 5 11 C4.15841464 9.73461631 3.32700252 8.46246221 2.5 7.1875 C1.80390625 6.12595703 1.80390625 6.12595703 1.09375 5.04296875 C0 3 0 3 0 0 Z " fill="#1E95DF" transform="translate(84,41)"/>
<path d="M0 0 C0.66 0 1.32 0 2 0 C2.33 1.32 2.66 2.64 3 4 C0 6 0 6 -3 6 C-2.67 4.68 -2.34 3.36 -2 2 C-1.34 2 -0.68 2 0 2 C0 1.34 0 0.68 0 0 Z " fill="#0994F6" transform="translate(109,10)"/>
<path d="M0 0 C2.83328987 2.83328987 3.7191375 4.35446828 5 8 C4.34 8 3.68 8 3 8 C2.34 8.66 1.68 9.32 1 10 C0.67 6.7 0.34 3.4 0 0 Z " fill="#6FBEFA" transform="translate(41,8)"/>
<path d="M0 0 C1.65 1.65 3.3 3.3 5 5 C4.67 5.66 4.34 6.32 4 7 C3.01 6.67 2.02 6.34 1 6 C-0.1875 3.4375 -0.1875 3.4375 -1 1 C-0.67 0.67 -0.34 0.34 0 0 Z " fill="#B1EBFD" transform="translate(82,42)"/>
<path d="M0 0 C0.33 0.99 0.66 1.98 1 3 C-0.32 4.32 -1.64 5.64 -3 7 C-3.33 5.35 -3.66 3.7 -4 2 C-2.68 1.34 -1.36 0.68 0 0 Z " fill="#165A7C" transform="translate(139,60)"/>
<path d="M0 0 C1.98 0.495 1.98 0.495 4 1 C4 1.99 4 2.98 4 4 C2.35 4 0.7 4 -1 4 C-0.67 2.68 -0.34 1.36 0 0 Z " fill="#5B9ACC" transform="translate(58,44)"/>
<path d="M0 0 C1.32 0 2.64 0 4 0 C4 1.98 4 3.96 4 6 C3.34 6 2.68 6 2 6 C1.34 4.02 0.68 2.04 0 0 Z " fill="#1199F8" transform="translate(112,16)"/>
<path d="M0 0 C1 2 1 2 1 6 C-1.5 7.75 -1.5 7.75 -4 9 C-2.94124926 5.59687262 -1.99097846 2.98646769 0 0 Z " fill="#D9ECF2" transform="translate(133,73)"/>
<path d="M0 0 C0.99 0.33 1.98 0.66 3 1 C1.68 3.31 0.36 5.62 -1 8 C-2.2077558 4.37673261 -1.54311128 3.35853631 0 0 Z " fill="#EDFBFE" transform="translate(10,40)"/>
<path d="M0 0 C1.5625 1.1875 1.5625 1.1875 3 3 C2.6875 5.6875 2.6875 5.6875 2 8 C0.10786631 5.61426621 -1.02391783 3.92824652 -2 1 C-1.34 0.67 -0.68 0.34 0 0 Z " fill="#E8F6F8" transform="translate(123,24)"/>
</svg>
