<?xml version="1.0" encoding="UTF-8"?>
<svg version="1.1" xmlns="http://www.w3.org/2000/svg" width="800" height="120">
<path d="M0 0 C2.9359436 -0.36076355 2.9359436 -0.36076355 6.74462891 -0.34057617 C7.43742447 -0.34101425 8.13022003 -0.34145233 8.8440094 -0.34190369 C11.13847851 -0.33981032 13.43222074 -0.31645468 15.7265625 -0.29296875 C17.31553752 -0.28737471 18.90451771 -0.28310371 20.49349976 -0.28010559 C24.67922203 -0.26864158 28.86463286 -0.23916131 33.05023193 -0.20599365 C37.31990343 -0.17532611 41.58962516 -0.16160737 45.859375 -0.14648438 C54.23972639 -0.11429284 62.61982447 -0.06307803 71 0 C73.01643703 3.49201496 75.03248347 6.98425512 77.04820251 10.47668457 C77.73077922 11.6591976 78.41345386 12.84165411 79.09623718 14.02404785 C84.97791698 24.20975881 90.84215629 34.4059437 96.61767578 44.65234375 C97.5993421 46.31954673 98.63525069 47.95532979 99.70654297 49.56640625 C103.98197468 56.09588791 103.98197468 56.09588791 104.07421875 60.72265625 C102.92982568 64.21409546 101.59046364 67.2189688 99.8125 70.4375 C99.47009277 71.06092285 99.12768555 71.6843457 98.77490234 72.32666016 C93.67948728 81.514146 88.49486924 90.72292864 82.86938477 99.59570312 C81.35276583 102.35758565 80.48032751 104.52358635 79.58178711 107.48242188 C77.73382775 112.71843761 75.76642864 116.89679453 71 120 C60.30913003 123.01435757 48.7980642 122.15420561 37.80847168 121.80847168 C34.48060708 121.73051173 31.1569544 121.75668344 27.82854939 121.78425217 C24.6112403 121.80073871 21.39646538 121.76194074 18.17967796 121.70560455 C16.64771802 121.68329735 15.11547357 121.67540593 13.5833683 121.68264008 C1.72716532 121.68088936 1.72716532 121.68088936 -2.40901184 117.65553284 C-4.22472991 114.84193462 -5.64672639 112.05912271 -7 109 C-7.66427002 107.89454834 -8.32854004 106.78909668 -9.01293945 105.65014648 C-9.54105225 104.73305908 -10.06916504 103.81597168 -10.61328125 102.87109375 C-11.2170459 101.824375 -11.82081055 100.77765625 -12.44287109 99.69921875 C-13.05984863 98.62285156 -13.67682617 97.54648438 -14.3125 96.4375 C-14.96041504 95.31085938 -15.60833008 94.18421875 -16.27587891 93.0234375 C-33.4762876 63.04740926 -33.4762876 63.04740926 -33 57 C-31.7421875 53.9765625 -31.7421875 53.9765625 -29.875 50.625 C-29.52880615 49.99851563 -29.1826123 49.37203125 -28.82592773 48.7265625 C-27.5693666 46.47323445 -26.28748477 44.23580544 -25 42 C-24.46938965 41.07670898 -23.9387793 40.15341797 -23.39208984 39.20214844 C-5.87963382 8.81945072 -5.87963382 8.81945072 0 0 Z " fill="#0199FD" transform="translate(36,0)"/>
<path d="M0 0 C4.01551551 3.49294842 6.16131305 7.56237376 8.625 12.1875 C11.28859469 17.11946583 13.97116267 22.01455265 16.91015625 26.7890625 C17.37534668 27.54936768 17.84053711 28.30967285 18.31982422 29.09301758 C19.21479258 30.54538412 20.12098597 31.99090789 21.03955078 33.4284668 C22.76813404 36.25338482 24.0122288 38.30397771 23.953125 41.66796875 C22.87505124 44.30571479 21.59739655 46.59820588 20.0625 49 C17.91640052 52.37470188 16.51549348 55.21126631 15 59 C21.93 59.33 28.86 59.66 36 60 C36.66 58.35 37.32 56.7 38 55 C39.10654123 52.87490756 40.25454672 50.77102416 41.4375 48.6875 C42.33275391 47.08455078 42.33275391 47.08455078 43.24609375 45.44921875 C43.82488281 44.64097656 44.40367188 43.83273438 45 43 C45.99 43 46.98 43 48 43 C50.35214025 45.75641436 52.13217181 48.90052488 54 52 C54.639375 53.051875 55.27875 54.10375 55.9375 55.1875 C57.85635541 60.26682314 55.86086496 65.30534047 53.8815918 70.1628418 C52.07845103 74.01359476 50.46356094 77.40077474 47 80 C43.19687127 80.75151198 39.53816049 80.45370865 35.6875 80.1875 C28.30119852 79.62163043 28.30119852 79.62163043 21.93359375 82.76416016 C18.17088353 87.75901067 15.71503248 93.42481253 13.26757812 99.14990234 C11.3064301 103.5594636 8.89651531 107.66647018 6.4375 111.8125 C6.03104248 112.54082031 5.62458496 113.26914063 5.20581055 114.01953125 C4.05859375 116.01953125 4.05859375 116.01953125 2 119 C1.01 119 0.02 119 -1 119 C-2.63561382 116.63192913 -4.0441883 114.32023949 -5.4375 111.8125 C-6.08513306 110.67856812 -6.08513306 110.67856812 -6.74584961 109.52172852 C-7.68132871 107.88143411 -8.61187103 106.23831676 -9.53808594 104.59277344 C-11.01496803 101.97345349 -12.50875224 99.36449563 -14.0078125 96.7578125 C-33.46454873 62.8983611 -33.46454873 62.8983611 -33 57 C-31.7421875 53.9765625 -31.7421875 53.9765625 -29.875 50.625 C-29.52880615 49.99851563 -29.1826123 49.37203125 -28.82592773 48.7265625 C-27.5693666 46.47323445 -26.28748477 44.23580544 -25 42 C-24.46938965 41.07670898 -23.9387793 40.15341797 -23.39208984 39.20214844 C-5.87963382 8.81945072 -5.87963382 8.81945072 0 0 Z " fill="#87C4F1" transform="translate(36,0)"/>
<path d="M0 0 C1.22244667 0.00333092 1.22244667 0.00333092 2.46958923 0.00672913 C3.85090782 0.00684242 3.85090782 0.00684242 5.26013184 0.00695801 C6.2611644 0.01211929 7.26219696 0.01728058 8.29356384 0.02259827 C9.31316696 0.02401321 10.33277008 0.02542816 11.38327026 0.02688599 C14.65417867 0.03250355 17.92501972 0.04505902 21.19590759 0.05775452 C23.40749515 0.06276725 25.61908377 0.06733055 27.83067322 0.07142639 C33.26494116 0.08247868 38.69916957 0.09923389 44.13340759 0.12025452 C39.59689011 14.07304612 30.83748109 27.32604042 23.01914978 39.68104553 C21.49098843 42.46810003 20.61212505 44.65058762 19.70860291 47.63563538 C17.86852193 52.86499801 15.93440565 57.06989293 11.13340759 60.12025452 C0.44156556 62.87725644 -11.07780321 61.79606326 -22.00257874 61.28755188 C-26.15761633 61.11260829 -30.31439106 61.0357938 -34.47206116 60.95033264 C-42.60839044 60.76880289 -50.73617149 60.47933414 -58.86659241 60.12025452 C-58.3268428 59.11788254 -57.7870932 58.11551056 -57.23098755 57.08276367 C-56.51055141 55.73976099 -55.79021472 54.39670495 -55.06996155 53.05360413 C-54.71566322 52.39627037 -54.3613649 51.73893661 -53.99633026 51.06168365 C-51.72809583 46.82610886 -49.62559399 42.54932356 -47.61268616 38.18666077 C-39.35635233 21.45084896 -39.35635233 21.45084896 -32.93397522 19.00209045 C-26.15251929 17.96250523 -19.54491498 18.70590887 -12.86659241 20.12025452 C-12.62038147 19.27076233 -12.37417053 18.42127014 -12.12049866 17.54603577 C-10.75813806 13.82394779 -8.92210973 10.63065469 -6.80409241 7.30775452 C-6.25785217 6.43086975 -6.25785217 6.43086975 -5.70057678 5.53627014 C-2.32383538 0.14971222 -2.32383538 0.14971222 0 0 Z " fill="#02558A" transform="translate(95.86659240722656,59.87974548339844)"/>
<path d="M0 0 C5.46447461 4.07016214 10.71652292 8.57950187 12.08203125 15.55078125 C13.0184456 24.0167314 13.20741667 30.95189317 7.7421875 37.8125 C5.09328742 40.5860542 2.51663346 42.83348014 -0.91796875 44.55078125 C-0.39847656 44.78152344 0.12101562 45.01226562 0.65625 45.25 C7.68751292 48.53818765 11.97717532 52.25436981 15.08203125 59.55078125 C17.44212061 67.40674305 16.6126228 74.72103203 12.95703125 81.96875 C12.66828125 82.49082031 12.37953125 83.01289062 12.08203125 83.55078125 C11.42203125 83.55078125 10.76203125 83.55078125 10.08203125 83.55078125 C9.83582031 84.14761719 9.58960938 84.74445313 9.3359375 85.359375 C6.16404381 90.90277799 -1.30389017 94.33603234 -7.28125 96.078125 C-17.34940232 97.88293453 -27.76847105 97.34276678 -36.91796875 92.55078125 C-43.95110745 87.48730571 -48.95210452 82.46059107 -50.66796875 73.73828125 C-50.75046875 72.68640625 -50.83296875 71.63453125 -50.91796875 70.55078125 C-49.91796875 69.55078125 -49.91796875 69.55078125 -47.1953125 69.453125 C-46.09316406 69.46472656 -44.99101562 69.47632812 -43.85546875 69.48828125 C-42.75074219 69.49730469 -41.64601562 69.50632812 -40.5078125 69.515625 C-39.65316406 69.52722656 -38.79851562 69.53882812 -37.91796875 69.55078125 C-37.7478125 70.17726563 -37.57765625 70.80375 -37.40234375 71.44921875 C-37.16 72.26648438 -36.91765625 73.08375 -36.66796875 73.92578125 C-36.4359375 74.73789063 -36.20390625 75.55 -35.96484375 76.38671875 C-34.64179412 79.12167956 -33.70894435 79.44401506 -30.91796875 80.55078125 C-29.99886719 81.07929687 -29.07976562 81.6078125 -28.1328125 82.15234375 C-21.88614644 84.86960554 -14.00070092 84.5475046 -7.421875 82.94140625 C-4.79908762 81.87266129 -3.20939253 81.13362882 -1.91796875 78.55078125 C-1.25796875 78.55078125 -0.59796875 78.55078125 0.08203125 78.55078125 C2.36697365 72.98123414 3.27103645 67.38870944 1.46484375 61.55859375 C-0.53721109 57.43046296 -3.19011004 55.10994344 -7.359375 53.2578125 C-11.78759946 52.03413521 -16.27036843 51.89960937 -20.84375 51.7265625 C-23.91796875 51.55078125 -23.91796875 51.55078125 -26.91796875 50.55078125 C-26.91796875 46.92078125 -26.91796875 43.29078125 -26.91796875 39.55078125 C-25.77199219 39.47601563 -24.62601563 39.40125 -23.4453125 39.32421875 C-12.71944265 38.81183284 -12.71944265 38.81183284 -4.01953125 33.2421875 C-1.01931423 28.63547129 -0.66864525 24.74203426 -1.41796875 19.42578125 C-2.22864065 15.98957843 -3.07961771 13.85144303 -5.73046875 11.48828125 C-11.38191398 8.05308905 -17.58705651 7.60788892 -24.03515625 9.01171875 C-29.27657993 10.69293012 -31.8908584 12.96425041 -34.91796875 17.55078125 C-35.24796875 19.20078125 -35.57796875 20.85078125 -35.91796875 22.55078125 C-39.87796875 22.55078125 -43.83796875 22.55078125 -47.91796875 22.55078125 C-49.56114638 19.26442599 -48.00222566 16.45588734 -46.92578125 13.0859375 C-44.18774468 6.19839589 -38.45650869 1.94452595 -32.06640625 -1.42578125 C-22.41315361 -5.41380454 -8.99031895 -5.43707534 0 0 Z " fill="#1D1D1D" transform="translate(219.91796875,14.44921875)"/>
<path d="M0 0 C5.91550931 5.45375014 9.80436855 12.79489918 10.8515625 20.70703125 C10.8515625 25.65703125 10.8515625 30.60703125 10.8515625 35.70703125 C-14.3934375 36.20203125 -14.3934375 36.20203125 -40.1484375 36.70703125 C-39.07036828 44.25351579 -38.34751974 49.28911137 -32.2734375 54.08203125 C-29.22056037 56.16908907 -26.90931143 57.51898755 -23.1484375 57.70703125 C-21.8903125 57.78953125 -20.6321875 57.87203125 -19.3359375 57.95703125 C-14.88979577 57.88138801 -11.03317212 56.89488622 -7.1484375 54.70703125 C-4.98658771 52.43431736 -3.54086064 50.49187754 -2.1484375 47.70703125 C6.42299107 48.56417411 6.42299107 48.56417411 9.8515625 50.70703125 C9.24787506 55.83837445 7.17174667 59.61650998 3.3125 63.09375 C-6.066733 70.22453673 -15.78006161 70.6493529 -27.1484375 69.70703125 C-35.05187532 68.47662228 -41.5015727 63.92922841 -46.68359375 57.9296875 C-53.40010702 48.21436403 -55.41529947 36.26391492 -54.1484375 24.70703125 C-51.85693723 13.19803551 -46.83117315 4.45752233 -37.1484375 -2.29296875 C-25.49886921 -8.6790276 -10.94855295 -7.45673051 0 0 Z M-34.4609375 9.76953125 C-38.07619925 13.72109642 -41.1484375 19.18046851 -41.1484375 24.70703125 C-27.9484375 24.70703125 -14.7484375 24.70703125 -1.1484375 24.70703125 C-2.17039164 17.5533523 -2.85452044 14.00094831 -7.8984375 8.95703125 C-16.87509745 2.74242052 -25.67227321 4.29734405 -34.4609375 9.76953125 Z " fill="#1E1E1E" transform="translate(785.1484375,41.29296875)"/>
<path d="M0 0 C5.08352476 4.15924753 9.00034277 8.84306888 10.75 15.25 C11.16043182 19.48004707 11.12317967 23.68289913 11.078125 27.9296875 C11.07625183 29.13819366 11.07437866 30.34669983 11.07244873 31.59182739 C11.06574666 34.13513974 11.0518691 36.6784421 11.03125 39.22167969 C10.99994189 43.1322579 10.99026164 47.04243356 10.984375 50.953125 C10.97521092 53.42448413 10.96483706 55.89583913 10.953125 58.3671875 C10.94887512 59.54312469 10.94462524 60.71906189 10.94024658 61.93063354 C10.93063904 63.00910553 10.92103149 64.08757751 10.91113281 65.19873047 C10.90430481 66.15246552 10.89747681 67.10620056 10.89044189 68.08883667 C10.75 70.25 10.75 70.25 9.75 71.25 C7.89712498 71.32226502 6.04166122 71.3338122 4.1875 71.3125 C3.17558594 71.30347656 2.16367187 71.29445313 1.12109375 71.28515625 C0.33863281 71.27355469 -0.44382812 71.26195313 -1.25 71.25 C-1.745 67.785 -1.745 67.785 -2.25 64.25 C-2.76949219 64.65992187 -3.28898438 65.06984375 -3.82421875 65.4921875 C-4.52160156 66.03101562 -5.21898437 66.56984375 -5.9375 67.125 C-6.62199219 67.65867187 -7.30648437 68.19234375 -8.01171875 68.7421875 C-14.93381192 73.40523805 -23.19729155 73.2406029 -31.25 72.25 C-37.18709121 70.5515218 -42.34469162 67.33290326 -46.12109375 62.39453125 C-49.23649931 56.47633868 -50.05281569 49.73390285 -48.1875 43.3125 C-45.79309698 37.4794389 -41.70399497 34.17970557 -36.25 31.25 C-25.1564303 27.62102085 -13.82566863 26.26823011 -2.25 25.25 C-2.36487748 23.66590006 -2.49234508 22.08271037 -2.625 20.5 C-2.72941406 19.17742188 -2.72941406 19.17742188 -2.8359375 17.828125 C-3.25734042 15.20429551 -3.82736658 13.48417001 -5.25 11.25 C-11.55020055 7.18987076 -18.07161269 7.88268813 -25.25 9.25 C-29.28240427 10.86601079 -31.91181683 13.61282617 -34.25 17.25 C-35.508125 17.12625 -36.76625 17.0025 -38.0625 16.875 C-38.77019531 16.80539063 -39.47789062 16.73578125 -40.20703125 16.6640625 C-42.25 16.25 -42.25 16.25 -45.25 14.25 C-44.375 9.5 -44.375 9.5 -43.25 7.25 C-42.59 7.25 -41.93 7.25 -41.25 7.25 C-41.03859375 6.65574219 -40.8271875 6.06148437 -40.609375 5.44921875 C-38.7465769 2.43555401 -36.66864133 1.59558642 -33.5 0.0625 C-31.96085938 -0.70126953 -31.96085938 -0.70126953 -30.390625 -1.48046875 C-20.83188733 -5.34438634 -9.08996943 -4.89459892 0 0 Z M-15.625 37.5625 C-16.45 37.68044922 -17.275 37.79839844 -18.125 37.91992188 C-23.99100997 38.82775675 -29.05312542 40.22531277 -34.125 43.4375 C-36.04566621 46.53190668 -36.58702399 49.68428615 -36.25 53.25 C-34.17491735 56.5457195 -32.3530922 58.55662776 -29.0625 60.625 C-20.852759 62.44938689 -14.58871522 61.22070582 -7.25 57.25 C-7.25 56.59 -7.25 55.93 -7.25 55.25 C-6.26 54.92 -5.27 54.59 -4.25 54.25 C-1.14498962 48.52553642 -0.94727896 42.60714175 -1.25 36.25 C-6.13288574 36.04073347 -10.81708391 36.81451925 -15.625 37.5625 Z " fill="#1B1B1B" transform="translate(573.25,38.75)"/>
<path d="M0 0 C3.96 0 7.92 0 12 0 C16.43717453 10.64921887 20.09292007 21.57892079 23.85595703 32.47949219 C24.69326704 34.90382519 25.53313907 37.32724364 26.375 39.75 C26.65400146 40.55300537 26.93300293 41.35601074 27.22045898 42.18334961 C30.02600982 50.1905815 33.02647328 58.12361257 36.06787109 66.04394531 C36.43477051 67.0078418 36.80166992 67.97173828 37.1796875 68.96484375 C37.50694824 69.8168335 37.83420898 70.66882324 38.17138672 71.54663086 C39.00577565 74.01710061 39.54660227 76.43466305 40 79 C42.32080185 76.67919815 42.81358343 75.0709577 43.85546875 71.97265625 C44.22341553 70.89048828 44.5913623 69.80832031 44.97045898 68.69335938 C45.37208252 67.49517578 45.77370605 66.29699219 46.1875 65.0625 C46.84226493 63.13936898 47.49707603 61.2162534 48.15309143 59.29354858 C48.6327804 57.88705371 49.11179126 56.48032742 49.5901947 55.07339478 C52.67297268 46.00753172 55.79280436 36.95456631 58.93081665 27.90768433 C59.60039779 25.97367938 60.26770662 24.0388862 60.93270874 22.103302 C61.8756993 19.35869805 62.8257455 16.61662941 63.77734375 13.875 C64.19871613 12.64075539 64.19871613 12.64075539 64.62860107 11.38157654 C66.04582258 7.32315256 67.41170007 3.48537627 70 0 C72.69921875 -0.48828125 72.69921875 -0.48828125 75.6875 -0.3125 C76.68136719 -0.26738281 77.67523438 -0.22226563 78.69921875 -0.17578125 C79.83810547 -0.08876953 79.83810547 -0.08876953 81 0 C82.0983858 3.29515741 81.9820329 3.77802221 80.875 6.8828125 C80.58842529 7.6989502 80.30185059 8.51508789 80.0065918 9.35595703 C79.6744165 10.26974121 79.34224121 11.18352539 79 12.125 C78.47563354 13.59815674 78.47563354 13.59815674 77.94067383 15.10107422 C76.88749879 18.04522207 75.82397229 20.98540447 74.75494385 23.92382812 C73.94200991 26.1594786 73.13177173 28.3960954 72.32177734 30.6328125 C65.86763656 48.44242112 59.34441415 66.22608941 52.625 83.9375 C52.16697998 85.14486816 51.70895996 86.35223633 51.23706055 87.59619141 C48.13912007 95.72175985 48.13912007 95.72175985 47 98 C45.04196493 98.05389087 43.08351091 98.09274217 41.125 98.125 C39.48917969 98.15980469 39.48917969 98.15980469 37.8203125 98.1953125 C35 98 35 98 33 96 C32.14356529 93.80037993 31.36974424 91.61271784 30.625 89.375 C28.00923257 81.74969705 25.21959604 74.19864796 22.36917114 66.65811157 C17.28273435 53.18890989 12.25617541 39.6966708 7.29046631 26.18252563 C6.55617544 24.18861163 5.81859306 22.19590664 5.07769775 20.20443726 C4.03649676 17.40376063 3.00709545 14.59901475 1.98046875 11.79296875 C1.66340469 10.94754517 1.34634064 10.10212158 1.01966858 9.2310791 C0.59650612 8.0632489 0.59650612 8.0632489 0.16479492 6.87182617 C-0.08546951 6.19335129 -0.33573395 5.5148764 -0.59358215 4.81584167 C-1 3 -1 3 0 0 Z " fill="#1B1B1B" transform="translate(242,12)"/>
<path d="M0 0 C7.54498233 -0.02312851 15.08996101 -0.04091769 22.63497066 -0.05181217 C26.13808885 -0.05703989 29.64118285 -0.0641355 33.14428711 -0.07543945 C37.16780841 -0.08834206 41.19130414 -0.09322912 45.21484375 -0.09765625 C46.47836166 -0.10281754 47.74187958 -0.10797882 49.04368591 -0.11329651 C50.204814 -0.11337204 51.36594208 -0.11344757 52.56225586 -0.11352539 C54.1044706 -0.11685631 54.1044706 -0.11685631 55.67784119 -0.12025452 C58 0 58 0 59 1 C59.0979057 2.49738124 59.12974864 3.99942892 59.125 5.5 C59.12886719 6.72203125 59.12886719 6.72203125 59.1328125 7.96875 C59 10 59 10 58 11 C52.12998868 12.04463843 46.19053592 12.13906081 40.24609375 12.09765625 C39.06660912 12.09553383 39.06660912 12.09553383 37.86329651 12.09336853 C35.38798985 12.08783672 32.91277863 12.07529775 30.4375 12.0625 C28.74414194 12.05747616 27.05078245 12.05291481 25.35742188 12.04882812 C21.23821622 12.03874686 17.11921307 12.01915913 13 12 C13 21.9 13 31.8 13 42 C17.16625 41.979375 21.3325 41.95875 25.625 41.9375 C35.13165905 41.91413091 44.53588658 42.02035055 54 43 C54.19401633 44.81181405 54.38004375 46.62448532 54.5625 48.4375 C54.71912109 49.95150391 54.71912109 49.95150391 54.87890625 51.49609375 C54.93884766 52.73552734 54.93884766 52.73552734 55 54 C54 55 54 55 50.12280273 55.11352539 C48.39305833 55.11336621 46.66330919 55.10766849 44.93359375 55.09765625 C44.02497086 55.0962413 43.11634796 55.09482635 42.18019104 55.09336853 C39.26592779 55.08775193 36.35174019 55.07519665 33.4375 55.0625 C31.46679798 55.05748714 29.49609476 55.05292386 27.52539062 55.04882812 C22.68356441 55.03777711 17.84179505 55.02050138 13 55 C13.00523682 56.26706787 13.01047363 57.53413574 13.01586914 58.83959961 C13.03391514 63.5228607 13.04543053 68.20611871 13.05493164 72.8894043 C13.05997278 74.91968298 13.06680557 76.94995802 13.07543945 78.98022461 C13.08751467 81.89177347 13.09323034 84.8032745 13.09765625 87.71484375 C13.10281754 88.6283812 13.10797882 89.54191864 13.11329651 90.48313904 C13.11349168 92.65575427 13.06211805 94.82827296 13 97 C12 98 12 98 9.53125 98.1328125 C8.03078125 98.12894531 8.03078125 98.12894531 6.5 98.125 C5.4996875 98.12757812 4.499375 98.13015625 3.46875 98.1328125 C1 98 1 98 0 97 C-0.84729379 91.57623771 -1.14491198 86.27255772 -1.12939453 80.78320312 C-1.13114685 80.00484604 -1.13289917 79.22648895 -1.13470459 78.42454529 C-1.1390705 75.87675685 -1.13620378 73.32903903 -1.1328125 70.78125 C-1.13348705 68.99580879 -1.13445834 67.21036766 -1.13571167 65.42492676 C-1.13718152 61.69294353 -1.13505705 57.96098433 -1.13037109 54.22900391 C-1.12467425 49.46125628 -1.12795708 44.69356496 -1.13394356 39.9258194 C-1.13756843 36.24195944 -1.13640174 32.55811269 -1.13381577 28.87425232 C-1.13315183 27.11689751 -1.13395616 25.35954148 -1.13629532 23.60218811 C-1.13885357 21.14035903 -1.13493684 18.67861935 -1.12939453 16.21679688 C-1.13141876 15.50071762 -1.13344299 14.78463837 -1.13552856 14.04685974 C-1.11577476 9.27635037 -0.66503577 4.71346529 0 0 Z " fill="#1F1F1F" transform="translate(363,12)"/>
<path d="M0 0 C5.48813825 4.77179178 8.82828511 10.83487735 10 18 C10.08767036 19.77342334 10.12784158 21.54960695 10.12939453 23.32519531 C10.13254669 24.36266907 10.13569885 25.40014282 10.13894653 26.46905518 C10.1369223 27.57754822 10.13489807 28.68604126 10.1328125 29.828125 C10.13376923 30.97287292 10.13472595 32.11762085 10.13571167 33.29705811 C10.13639114 35.71106013 10.13455313 38.125064 10.13037109 40.5390625 C10.12499994 44.25004121 10.13033407 47.96089996 10.13671875 51.671875 C10.13605831 54.01562527 10.13477787 56.35937546 10.1328125 58.703125 C10.13483673 59.81971497 10.13686096 60.93630493 10.13894653 62.08673096 C10.13421829 63.62402863 10.13421829 63.62402863 10.12939453 65.19238281 C10.12859894 66.09885559 10.12780334 67.00532837 10.12698364 67.93927002 C10 70 10 70 9 71 C7.16884117 71.09851171 5.33380067 71.12972629 3.5 71.125 C2.4996875 71.12757812 1.499375 71.13015625 0.46875 71.1328125 C-2 71 -2 71 -3 70 C-3.10706736 68.44142773 -3.14621849 66.87812115 -3.15771484 65.31591797 C-3.16797699 64.31752899 -3.17823914 63.31914001 -3.18881226 62.29049683 C-3.19611359 61.20205475 -3.20341492 60.11361267 -3.2109375 58.9921875 C-3.23901929 56.70311801 -3.26768383 54.41405561 -3.296875 52.125 C-3.33806464 48.50423478 -3.37493723 44.88360001 -3.40136719 41.26269531 C-3.42904368 37.77641123 -3.4749335 34.29073583 -3.5234375 30.8046875 C-3.52669037 29.72839081 -3.52994324 28.65209412 -3.53329468 27.54318237 C-3.62996816 21.60672531 -4.09220137 17.22305468 -7 12 C-10.97493983 8.49270015 -15.83027725 7.85352452 -21 8 C-25.95496656 9.05554745 -29.87038557 10.90742729 -33 15 C-34.63816041 18.49755593 -35.25757954 21.29153819 -35.30297852 25.14160156 C-35.32794151 26.63774994 -35.32794151 26.63774994 -35.35340881 28.16412354 C-35.36182297 29.22886902 -35.37023712 30.2936145 -35.37890625 31.390625 C-35.39590073 32.49098083 -35.4128952 33.59133667 -35.43040466 34.72503662 C-35.48346913 38.23329977 -35.52382154 41.74155104 -35.5625 45.25 C-35.60637756 48.77267269 -35.65299659 52.29525225 -35.70530701 55.81781006 C-35.73735552 58.00902307 -35.76421671 60.20031895 -35.78553772 62.3916626 C-35.79902756 63.37648621 -35.8125174 64.36130981 -35.82641602 65.37597656 C-35.83592789 66.24691956 -35.84543976 67.11786255 -35.85523987 68.01519775 C-36 70 -36 70 -37 71 C-38.83115883 71.09851171 -40.66619933 71.12972629 -42.5 71.125 C-43.5003125 71.12757812 -44.500625 71.13015625 -45.53125 71.1328125 C-48 71 -48 71 -49 70 C-49.0996392 67.76612794 -49.12799795 65.52906141 -49.12939453 63.29296875 C-49.13114685 62.59217194 -49.13289917 61.89137512 -49.13470459 61.16934204 C-49.13912266 58.84203651 -49.13618529 56.51480636 -49.1328125 54.1875 C-49.13348555 52.57706691 -49.13445559 50.96663391 -49.13571167 49.35620117 C-49.13718858 45.97671545 -49.13503431 42.5972561 -49.13037109 39.21777344 C-49.1246738 34.87623495 -49.12795285 30.53475827 -49.13394356 26.19322205 C-49.13754936 22.86649099 -49.1364105 19.5397747 -49.13381577 16.21304321 C-49.13314655 14.61178582 -49.13397474 13.0105271 -49.13629532 11.40927124 C-49.13882216 9.17515489 -49.13498085 6.94114 -49.12939453 4.70703125 C-49.12859894 3.4331958 -49.12780334 2.15936035 -49.12698364 0.84692383 C-49 -2 -49 -2 -48 -3 C-46.14712498 -3.07226502 -44.29166122 -3.0838122 -42.4375 -3.0625 C-41.42558594 -3.05347656 -40.41367187 -3.04445312 -39.37109375 -3.03515625 C-38.19740234 -3.01775391 -38.19740234 -3.01775391 -37 -3 C-36.67 -0.03 -36.34 2.94 -36 6 C-35.2265625 4.88625 -35.2265625 4.88625 -34.4375 3.75 C-25.6435617 -6.17136629 -11.0051169 -6.48142464 0 0 Z " fill="#232323" transform="translate(506,39)"/>
<path d="M0 0 C5.84970653 5.7030814 7.84484791 13.07174713 8.1574707 21.09814453 C8.16349947 23.27640865 8.14796615 25.4548162 8.11328125 27.6328125 C8.10999313 28.79126678 8.10670502 29.94972107 8.10331726 31.14328003 C8.09296629 33.56855979 8.07313705 35.99381623 8.04418945 38.41894531 C7.99971115 42.14922551 7.98268498 45.87886115 7.97070312 49.609375 C7.95729444 51.97136357 7.94237575 54.33334416 7.92578125 56.6953125 C7.91839432 57.81495392 7.91100739 58.93459534 7.90339661 60.08816528 C7.89056137 61.113685 7.87772614 62.13920471 7.86450195 63.19580078 C7.85465775 64.10194122 7.84481354 65.00808167 7.83467102 65.94168091 C7.6875 68 7.6875 68 6.6875 69 C5.00141034 69.07205511 3.31249341 69.08386068 1.625 69.0625 C0.24634766 69.04896484 0.24634766 69.04896484 -1.16015625 69.03515625 C-2.22556641 69.01775391 -2.22556641 69.01775391 -3.3125 69 C-5.82214267 64.19575648 -5.52004281 59.72591876 -5.40234375 54.45703125 C-5.38191011 52.55924748 -5.36173611 50.6614609 -5.34179688 48.76367188 C-5.29847064 45.79276504 -5.25017398 42.8220482 -5.19604492 39.85131836 C-5.14732928 36.9698961 -5.1177418 34.08871986 -5.08984375 31.20703125 C-5.06808578 30.33375687 -5.04632782 29.46048248 -5.02391052 28.56074524 C-4.97509425 22.39477496 -5.80490751 16.68503077 -8.3125 11 C-12.31237463 7.2728441 -15.89009876 6.18697935 -21.3125 6 C-24.06688401 6.43628602 -26.65890636 7.15263396 -29.3125 8 C-30.735625 8.4021875 -30.735625 8.4021875 -32.1875 8.8125 C-34.48994646 9.85460872 -34.48994646 9.85460872 -35.5625 12.25 C-37.36331078 18.85297284 -37.5173704 25.2855102 -37.62890625 32.0859375 C-37.64968735 33.14285797 -37.67046844 34.19977844 -37.69187927 35.28872681 C-37.75703991 38.65075445 -37.81610361 42.01285737 -37.875 45.375 C-37.91821708 47.6601639 -37.96183238 49.94532031 -38.00585938 52.23046875 C-38.11268683 57.82023391 -38.21451425 63.41007324 -38.3125 69 C-40.29159398 69.02686553 -42.27078971 69.04633375 -44.25 69.0625 C-45.35214844 69.07410156 -46.45429687 69.08570312 -47.58984375 69.09765625 C-50.3125 69 -50.3125 69 -51.3125 68 C-51.4121392 65.76612794 -51.44049795 63.52906141 -51.44189453 61.29296875 C-51.44364685 60.59217194 -51.44539917 59.89137512 -51.44720459 59.16934204 C-51.45162266 56.84203651 -51.44868529 54.51480636 -51.4453125 52.1875 C-51.44598555 50.57706691 -51.44695559 48.96663391 -51.44821167 47.35620117 C-51.44968858 43.97671545 -51.44753431 40.5972561 -51.44287109 37.21777344 C-51.4371738 32.87623495 -51.44045285 28.53475827 -51.44644356 24.19322205 C-51.45004936 20.86649099 -51.4489105 17.5397747 -51.44631577 14.21304321 C-51.44564655 12.61178582 -51.44647474 11.0105271 -51.44879532 9.40927124 C-51.45132216 7.17515489 -51.44748085 4.94114 -51.44189453 2.70703125 C-51.44109894 1.4331958 -51.44030334 0.15936035 -51.43948364 -1.15307617 C-51.3125 -4 -51.3125 -4 -50.3125 -5 C-48.09765625 -5.203125 -48.09765625 -5.203125 -45.375 -5.25 C-44.03115234 -5.28867187 -44.03115234 -5.28867187 -42.66015625 -5.328125 C-41.88542969 -5.21984375 -41.11070312 -5.1115625 -40.3125 -5 C-37.8830484 -1.3558226 -38.15070425 0.71241272 -38.3125 5 C-37.61125 3.906875 -36.91 2.81375 -36.1875 1.6875 C-33.16731301 -2.53564283 -29.95759315 -4.21362096 -25 -5.6875 C-15.61844025 -6.77837904 -7.67181288 -5.92434439 0 0 Z " fill="#1E1E1E" transform="translate(647.3125,41)"/>
<path d="M0 0 C5.47268836 4.45141589 9.88519723 10.24951239 10.75 17.375 C9.75 18.375 9.75 18.375 7.02734375 18.47265625 C5.92519531 18.46105469 4.82304688 18.44945313 3.6875 18.4375 C2.03041016 18.42396484 2.03041016 18.42396484 0.33984375 18.41015625 C-0.51480469 18.39855469 -1.36945312 18.38695313 -2.25 18.375 C-2.62125 17.488125 -2.9925 16.60125 -3.375 15.6875 C-5.86856629 11.28219956 -8.44317971 8.17546356 -13.359375 6.7734375 C-19.22045707 5.9043805 -24.82489543 6.31373798 -29.9765625 9.4140625 C-35.86383895 13.90927358 -37.59000592 19.52802032 -38.5625 26.625 C-39.3606679 32.91163258 -39.20040207 38.32544781 -37.25 44.375 C-37.05277344 45.03113281 -36.85554687 45.68726563 -36.65234375 46.36328125 C-34.62132286 52.04284265 -31.04678327 54.82940925 -25.875 57.6875 C-19.29199287 59.41162092 -12.24255313 58.706959 -6.25 55.375 C-4.88310717 53.16659985 -4.15252453 51.08907194 -3.3125 48.625 C-1.25 46.375 -1.25 46.375 1.390625 46.05859375 C4.19322879 46.06218683 6.95601158 46.16153739 9.75 46.375 C10.95592913 49.99278739 10.2295107 51.79081981 8.82421875 55.25 C5.6076731 61.61291212 1.04780136 65.28335206 -5.25 68.375 C-5.97703125 68.73207031 -6.7040625 69.08914062 -7.453125 69.45703125 C-15.93065007 72.23945917 -27.31693681 71.42806347 -35.30859375 67.57421875 C-38.116217 65.83993236 -40.14017204 63.90679355 -42.25 61.375 C-43.095625 60.4675 -43.94125 59.56 -44.8125 58.625 C-52.8819959 48.77359649 -53.04055933 36.49983776 -52.25 24.375 C-50.70391855 14.24685629 -45.07006862 6.2466978 -37.265625 -0.1875 C-26.22679023 -8.06015736 -11.05420503 -7.5800263 0 0 Z " fill="#202020" transform="translate(716.25,40.625)"/>
<path d="M0 0 C1.34384766 -0.03867187 1.34384766 -0.03867187 2.71484375 -0.078125 C3.48957031 0.03015625 4.26429688 0.1384375 5.0625 0.25 C7.4919516 3.8941774 7.22429575 5.96241272 7.0625 10.25 C8.3825 10.58 9.7025 10.91 11.0625 11.25 C11.68121338 13.03100586 11.68121338 13.03100586 12.0625 15.25 C11.43569336 16.40628906 10.80888672 17.56257813 10.16308594 18.75390625 C7.29927518 24.0977149 7.45993527 29.23286817 7.453125 35.1875 C7.43658875 36.30817871 7.42005249 37.42885742 7.40301514 38.58349609 C7.35469379 42.13905404 7.33319853 45.69418473 7.3125 49.25 C7.2843272 51.67059423 7.25439795 54.09116869 7.22265625 56.51171875 C7.14893898 62.42440201 7.0972036 68.3369659 7.0625 74.25 C5.08340602 74.27686553 3.10421029 74.29633375 1.125 74.3125 C0.02285156 74.32410156 -1.07929687 74.33570312 -2.21484375 74.34765625 C-4.9375 74.25 -4.9375 74.25 -5.9375 73.25 C-6.0371392 71.01612794 -6.06549795 68.77906141 -6.06689453 66.54296875 C-6.06864685 65.84217194 -6.07039917 65.14137512 -6.07220459 64.41934204 C-6.07662266 62.09203651 -6.07368529 59.76480636 -6.0703125 57.4375 C-6.07098555 55.82706691 -6.07195559 54.21663391 -6.07321167 52.60620117 C-6.07468858 49.22671545 -6.07253431 45.8472561 -6.06787109 42.46777344 C-6.0621738 38.12623495 -6.06545285 33.78475827 -6.07144356 29.44322205 C-6.07504936 26.11649099 -6.0739105 22.7897747 -6.07131577 19.46304321 C-6.07064655 17.86178582 -6.07147474 16.2605271 -6.07379532 14.65927124 C-6.07632216 12.42515489 -6.07248085 10.19114 -6.06689453 7.95703125 C-6.06609894 6.6831958 -6.06530334 5.40936035 -6.06448364 4.09692383 C-5.85649129 -0.56618373 -4.23156319 0.07285331 0 0 Z " fill="#242424" transform="translate(601.9375,35.75)"/>
<path d="M0 0 C1.50046875 0.00386719 1.50046875 0.00386719 3.03125 0.0078125 C4.0315625 0.00523438 5.031875 0.00265625 6.0625 0 C8.53125 0.1328125 8.53125 0.1328125 9.53125 1.1328125 C9.6308892 3.36668456 9.65924795 5.60375109 9.66064453 7.83984375 C9.66239685 8.54064056 9.66414917 9.24143738 9.66595459 9.96347046 C9.67037266 12.29077599 9.66743529 14.61800614 9.6640625 16.9453125 C9.66473555 18.55574559 9.66570559 20.16617859 9.66696167 21.77661133 C9.66843858 25.15609705 9.66628431 28.5355564 9.66162109 31.91503906 C9.6559238 36.25657755 9.65920285 40.59805423 9.66519356 44.93959045 C9.66879936 48.26632151 9.6676605 51.5930378 9.66506577 54.91976929 C9.66439655 56.52102668 9.66522474 58.1222854 9.66754532 59.72354126 C9.67007216 61.95765761 9.66623085 64.1916725 9.66064453 66.42578125 C9.65945114 68.33653442 9.65945114 68.33653442 9.65823364 70.28588867 C9.53125 73.1328125 9.53125 73.1328125 8.53125 74.1328125 C6.70009117 74.23132421 4.86505067 74.26253879 3.03125 74.2578125 C2.0309375 74.26039062 1.030625 74.26296875 0 74.265625 C-2.46875 74.1328125 -2.46875 74.1328125 -3.46875 73.1328125 C-3.5683892 70.89894044 -3.59674795 68.66187391 -3.59814453 66.42578125 C-3.59989685 65.72498444 -3.60164917 65.02418762 -3.60345459 64.30215454 C-3.60787266 61.97484901 -3.60493529 59.64761886 -3.6015625 57.3203125 C-3.60223555 55.70987941 -3.60320559 54.09944641 -3.60446167 52.48901367 C-3.60593858 49.10952795 -3.60378431 45.7300686 -3.59912109 42.35058594 C-3.5934238 38.00904745 -3.59670285 33.66757077 -3.60269356 29.32603455 C-3.60629936 25.99930349 -3.6051605 22.6725872 -3.60256577 19.34585571 C-3.60189655 17.74459832 -3.60272474 16.1433396 -3.60504532 14.54208374 C-3.60757216 12.30796739 -3.60373085 10.0739525 -3.59814453 7.83984375 C-3.59734894 6.5660083 -3.59655334 5.29217285 -3.59573364 3.97973633 C-3.42644425 0.18433403 -3.42644425 0.18433403 0 0 Z " fill="#151515" transform="translate(435.46875,35.8671875)"/>
<path d="M0 0 C3 1 3 1 4.02734375 2.77734375 C4.6327904 4.21430511 5.23696316 5.6518039 5.83984375 7.08984375 C7.29904456 9.49236629 8.40778238 9.96016467 11 11 C13.36504603 11.28297812 13.36504603 11.28297812 15.87890625 11.23828125 C17.26045898 11.26245117 17.26045898 11.26245117 18.66992188 11.28710938 C20.60214612 11.30407016 22.53450911 11.30923164 24.46679688 11.30273438 C27.06365446 11.35914824 29.45958325 11.45543917 32 12 C34.0546875 14.31640625 34.0546875 14.31640625 35 17 C35.515625 18.19625 36.03125 19.3925 36.5625 20.625 C37.036875 21.73875 37.51125 22.8525 38 24 C38.66 24.99 39.32 25.98 40 27 C40 27.99 40 28.98 40 30 C40.66 30 41.32 30 42 30 C42 30.66 42 31.32 42 32 C43.16571533 31.96447021 44.33143066 31.92894043 45.5324707 31.89233398 C49.85409916 31.76204256 54.17590588 31.63885511 58.49780273 31.51782227 C60.36895291 31.46442575 62.24004902 31.40909821 64.11108398 31.35180664 C66.7991978 31.26983022 69.48742905 31.19478146 72.17578125 31.12109375 C73.01337479 31.09405869 73.85096832 31.06702362 74.71394348 31.03916931 C78.0908368 30.95223041 80.76897996 30.92299332 84 32 C83.01 28.535 83.01 28.535 82 25 C81.34 25 80.68 25 80 25 C74.44419134 15.77448747 74.44419134 15.77448747 74 10 C77.57452595 13.33769495 79.73579257 17.31006349 82.1875 21.5 C82.65091797 22.27214844 83.11433594 23.04429688 83.59179688 23.83984375 C84.24825195 24.95552734 84.24825195 24.95552734 84.91796875 26.09375 C85.31781982 26.77115234 85.7176709 27.44855469 86.12963867 28.14648438 C87 30 87 30 87 33 C71.49 33.33 55.98 33.66 40 34 C37.36 28.72 34.72 23.44 32 18 C31.01 17.34 30.02 16.68 29 16 C28.30003906 17.84078125 28.30003906 17.84078125 27.5859375 19.71875 C25.39630188 24.68842036 23.26192377 29.48576411 19 33 C11.93727865 35.15994575 4.20023069 34.04385396 -3 33 C-1.38742459 27.43374985 1.28966108 23.44969116 4.63671875 18.78125 C6.35745308 15.27075474 6.07691439 13.71583976 5 10 C3.84969912 7.22128895 3.84969912 7.22128895 2.4375 4.625 C1.75494141 3.31402344 1.75494141 3.31402344 1.05859375 1.9765625 C0.70925781 1.32429688 0.35992187 0.67203125 0 0 Z " fill="#509ECE" transform="translate(53,27)"/>
<path d="M0 0 C3.43495349 3.24151754 6.07007653 6.31320801 8.375 10.4375 C8.89835937 11.34371094 9.42171875 12.24992187 9.9609375 13.18359375 C11.27609483 16.74836229 11.09760754 18.36389273 10 22 C8.63912761 24.73132339 7.06827152 27.29773168 5.4375 29.875 C5.01275391 30.56335938 4.58800781 31.25171875 4.15039062 31.9609375 C3.1089225 33.64600952 2.05564084 35.32377031 1 37 C-1.89523399 33.50132478 -4.44362789 29.93747606 -6.8125 26.0625 C-7.43769531 25.06347656 -8.06289062 24.06445312 -8.70703125 23.03515625 C-10.29211867 19.31427128 -10.22517188 17.83595482 -9 14 C-7.64373351 11.42256456 -6.07679305 9.02996591 -4.4375 6.625 C-4.01275391 5.98433594 -3.58800781 5.34367187 -3.15039062 4.68359375 C-2.10941258 3.1162785 -1.05595366 1.55726499 0 0 Z " fill="#DBEEF9" transform="translate(82,42)"/>
<path d="M0 0 C3 1 3 1 4.02734375 2.77734375 C4.6327904 4.21430511 5.23696316 5.6518039 5.83984375 7.08984375 C7.29904456 9.49236629 8.40778238 9.96016467 11 11 C13.36504603 11.28297812 13.36504603 11.28297812 15.87890625 11.23828125 C17.26045898 11.26245117 17.26045898 11.26245117 18.66992188 11.28710938 C20.60214612 11.30407016 22.53450911 11.30923164 24.46679688 11.30273438 C27.06365446 11.35914824 29.45958325 11.45543917 32 12 C34.0546875 14.31640625 34.0546875 14.31640625 35 17 C35.515625 18.19625 36.03125 19.3925 36.5625 20.625 C37.036875 21.73875 37.51125 22.8525 38 24 C38.66 24.99 39.32 25.98 40 27 C40 27.99 40 28.98 40 30 C40.66 30 41.32 30 42 30 C42 30.66 42 31.32 42 32 C43.16571533 31.96447021 44.33143066 31.92894043 45.5324707 31.89233398 C49.85409916 31.76204256 54.17590588 31.63885511 58.49780273 31.51782227 C60.36895291 31.46442575 62.24004902 31.40909821 64.11108398 31.35180664 C66.7991978 31.26983022 69.48742905 31.19478146 72.17578125 31.12109375 C73.01337479 31.09405869 73.85096832 31.06702362 74.71394348 31.03916931 C78.0908368 30.95223041 80.76897996 30.92299332 84 32 C83.01 28.535 83.01 28.535 82 25 C81.34 25 80.68 25 80 25 C74.44419134 15.77448747 74.44419134 15.77448747 74 10 C77.57452595 13.33769495 79.73579257 17.31006349 82.1875 21.5 C82.65091797 22.27214844 83.11433594 23.04429688 83.59179688 23.83984375 C84.24825195 24.95552734 84.24825195 24.95552734 84.91796875 26.09375 C85.31781982 26.77115234 85.7176709 27.44855469 86.12963867 28.14648438 C87 30 87 30 87 33 C71.49 33.33 55.98 33.66 40 34 C37.36 28.72 34.72 23.44 32 18 C28.19712871 15.46475247 27.37650515 16.1825785 23 17 C20.04071749 17.1286947 17.08641373 17.09512574 14.125 17.0625 C13.34125 17.05798828 12.5575 17.05347656 11.75 17.04882812 C9.83329986 17.03714093 7.91663952 17.01920908 6 17 C5.88785156 15.95714844 5.77570312 14.91429687 5.66015625 13.83984375 C5.03654731 10.21257994 4.15550792 7.77825842 2.4375 4.5625 C1.98246094 3.69753906 1.52742188 2.83257813 1.05859375 1.94140625 C0.70925781 1.30074219 0.35992187 0.66007812 0 0 Z " fill="#1695E8" transform="translate(53,27)"/>
<path d="M0 0 C3.32274404 2.45594125 4.77618008 3.9256644 5.625 8 C4.77618008 12.0743356 3.32274404 13.54405875 0 16 C-3.83305454 16.71869773 -5.43695612 16.32531424 -8.8125 14.375 C-11.49838717 11.45889393 -12.08076408 9.95743993 -12 6 C-8.66818744 0.82994603 -6.15754856 -0.72441748 0 0 Z " fill="#1F1F1F" transform="translate(442,9)"/>
<path d="M0 0 C1.51400391 0.01740234 1.51400391 0.01740234 3.05859375 0.03515625 C4.07050781 0.04417969 5.08242188 0.05320313 6.125 0.0625 C7.29869141 0.07990234 7.29869141 0.07990234 8.49609375 0.09765625 C8.49609375 0.42765625 8.49609375 0.75765625 8.49609375 1.09765625 C5.19609375 1.09765625 1.89609375 1.09765625 -1.50390625 1.09765625 C-1.17390625 2.08765625 -0.84390625 3.07765625 -0.50390625 4.09765625 C-0.40952162 6.21317859 -0.37596816 8.33159246 -0.37451172 10.44921875 C-0.37135956 11.76067871 -0.3682074 13.07213867 -0.36495972 14.42333984 C-0.36674961 15.85644565 -0.36880058 17.28955116 -0.37109375 18.72265625 C-0.37042015 20.19091813 -0.36944965 21.65917991 -0.36819458 23.12744141 C-0.36672027 26.20411237 -0.36886361 29.28075429 -0.37353516 32.35742188 C-0.37923229 36.30187288 -0.37595186 40.24625584 -0.36996269 44.19070435 C-0.36634989 47.22241733 -0.36749898 50.25411417 -0.37009048 53.28582764 C-0.37075776 54.74029549 -0.36993828 56.19476481 -0.36761093 57.64923096 C-0.36507269 59.68151827 -0.36962702 61.71381072 -0.37451172 63.74609375 C-0.37530731 64.90286621 -0.37610291 66.05963867 -0.37692261 67.25146484 C-0.50390625 70.09765625 -0.50390625 70.09765625 -1.50390625 73.09765625 C1.79609375 73.09765625 5.09609375 73.09765625 8.49609375 73.09765625 C8.49609375 73.42765625 8.49609375 73.75765625 8.49609375 74.09765625 C6.68367323 74.12452904 4.87114142 74.1439934 3.05859375 74.16015625 C2.04925781 74.17175781 1.03992188 74.18335937 0 74.1953125 C-2.50390625 74.09765625 -2.50390625 74.09765625 -3.50390625 73.09765625 C-3.60354545 70.86378419 -3.6319042 68.62671766 -3.63330078 66.390625 C-3.6350531 65.68982819 -3.63680542 64.98903137 -3.63861084 64.26699829 C-3.64302891 61.93969276 -3.64009154 59.61246261 -3.63671875 57.28515625 C-3.6373918 55.67472316 -3.63836184 54.06429016 -3.63961792 52.45385742 C-3.64109483 49.0743717 -3.63894056 45.69491235 -3.63427734 42.31542969 C-3.62858005 37.9738912 -3.6318591 33.63241452 -3.63784981 29.2908783 C-3.64145561 25.96414724 -3.64031675 22.63743095 -3.63772202 19.31069946 C-3.6370528 17.70944207 -3.63788099 16.10818335 -3.64020157 14.50692749 C-3.64272841 12.27281114 -3.6388871 10.03879625 -3.63330078 7.8046875 C-3.63250519 6.53085205 -3.63170959 5.2570166 -3.63088989 3.94458008 C-3.46096736 0.13498313 -3.46096736 0.13498313 0 0 Z " fill="#808080" transform="translate(435.50390625,35.90234375)"/>
<path d="M0 0 C30.5392995 -0.20638953 30.5392995 -0.20638953 42 1 C42.19401633 2.81181405 42.38004375 4.62448532 42.5625 6.4375 C42.71912109 7.95150391 42.71912109 7.95150391 42.87890625 9.49609375 C42.93884766 10.73552734 42.93884766 10.73552734 43 12 C42 13 42 13 38.12280273 13.11352539 C36.39305833 13.11336621 34.66330919 13.10766849 32.93359375 13.09765625 C32.02497086 13.0962413 31.11634796 13.09482635 30.18019104 13.09336853 C27.26592779 13.08775193 24.35174019 13.07519665 21.4375 13.0625 C19.46679798 13.05748714 17.49609476 13.05292386 15.52539062 13.04882812 C10.68356441 13.03777711 5.84179505 13.02050138 1 13 C0.67 13.66 0.34 14.32 0 15 C0 13.68 0 12.36 0 11 C13.53 11 27.06 11 41 11 C41 8.03 41 5.06 41 2 C27.47 2 13.94 2 0 2 C0 1.34 0 0.68 0 0 Z " fill="#919191" transform="translate(375,54)"/>
<path d="M0 0 C2.64553094 3.38828252 4.93239652 6.97116144 7.1875 10.625 C7.73954102 11.50285156 7.73954102 11.50285156 8.30273438 12.3984375 C11 16.76210285 11 16.76210285 11 19 C3.41 19 -4.18 19 -12 19 C-12 17.68 -12 16.36 -12 15 C-10.58344207 14.9727585 -9.16672955 14.95349533 -7.75 14.9375 C-6.56664063 14.92009766 -6.56664063 14.92009766 -5.359375 14.90234375 C-3.08935879 14.99630137 -1.19070551 15.44304097 1 16 C3.18703385 15.62092718 3.18703385 15.62092718 5 15 C5 14.01 5 13.02 5 12 C4.01 11.67 3.02 11.34 2 11 C0.60955102 7.12137916 0 4.13537997 0 0 Z M-7 17 C-7 17.33 -7 17.66 -7 18 C-5.35 18 -3.7 18 -2 18 C-2 17.67 -2 17.34 -2 17 C-3.65 17 -5.3 17 -7 17 Z " fill="#95D3FB" transform="translate(71,60)"/>
<path d="M0 0 C1.75370452 3.50740904 0.95290514 7.29070484 0 11 C-2.4375 14.0625 -2.4375 14.0625 -5 16 C-5.66 16 -6.32 16 -7 16 C-7.12375 16.804375 -7.2475 17.60875 -7.375 18.4375 C-7.58125 19.283125 -7.7875 20.12875 -8 21 C-8.66 21.33 -9.32 21.66 -10 22 C-10.93393441 23.655611 -11.80102783 25.34950522 -12.625 27.0625 C-13.07101563 27.98160156 -13.51703125 28.90070312 -13.9765625 29.84765625 C-14.31429688 30.55792969 -14.65203125 31.26820312 -15 32 C-15.66 31.67 -16.32 31.34 -17 31 C-15.74766442 26.89574794 -14.23330077 23.38607559 -12.03125 19.70703125 C-11.46019531 18.74732422 -10.88914062 17.78761719 -10.30078125 16.79882812 C-9.40939453 15.3205957 -9.40939453 15.3205957 -8.5 13.8125 C-7.90574219 12.81541016 -7.31148437 11.81832031 -6.69921875 10.79101562 C-4.52359202 7.14941918 -2.35333511 3.53000266 0 0 Z " fill="#B1D1E3" transform="translate(23,22)"/>
<path d="M0 0 C14.85 0 29.7 0 45 0 C42 2 42 2 40 2 C40 2.66 40 3.32 40 4 C39.01 4 38.02 4 37 4 C37 3.34 37 2.68 37 2 C35.42532959 2.01571045 35.42532959 2.01571045 33.81884766 2.03173828 C29.93134967 2.06788453 26.04386659 2.09088078 22.15625 2.10986328 C20.47230534 2.11993317 18.78837821 2.13358988 17.10449219 2.15087891 C14.68680499 2.17508426 12.26934857 2.18647296 9.8515625 2.1953125 C9.0963028 2.20563507 8.34104309 2.21595764 7.56289673 2.22659302 C5.7070602 2.22699318 3.8518072 2.12222716 2 2 C1.34 1.34 0.68 0.68 0 0 Z " fill="#005FA5" transform="translate(94,60)"/>
<path d="M0 0 C0.33 0.66 0.66 1.32 1 2 C0.33496094 3.73999023 0.33496094 3.73999023 -0.765625 5.80859375 C-1.16136719 6.55560547 -1.55710938 7.30261719 -1.96484375 8.07226562 C-2.38894531 8.85279297 -2.81304687 9.63332031 -3.25 10.4375 C-3.65863281 11.21416016 -4.06726563 11.99082031 -4.48828125 12.79101562 C-6.38013976 16.32228207 -8.03403784 19.25878047 -11 22 C-10.56179109 17.44262737 -10.14958831 14.42346555 -7 11 C-7.99 10.01 -8.98 9.02 -10 8 C-9.33333333 6 -8.66666667 4 -8 2 C-8 2.66 -8 3.32 -8 4 C-7.01 4 -6.02 4 -5 4 C-5 3.34 -5 2.68 -5 2 C-3.35 1.34 -1.7 0.68 0 0 Z " fill="#05568C" transform="translate(139,60)"/>
<path d="M0 0 C1.17673198 2.35346396 1.16623866 3.8806033 1.1875 6.5 C1.20167969 7.2940625 1.21585938 8.088125 1.23046875 8.90625 C1 11 1 11 -1 13 C-1.33 12.01 -1.66 11.02 -2 10 C-2.99 12.31 -3.98 14.62 -5 17 C-5.66 17 -6.32 17 -7 17 C-8.63676257 18.9600281 -8.63676257 18.9600281 -10 21 C-11 18 -11 18 -10.21142578 16.11474609 C-9.7936084 15.42461426 -9.37579102 14.73448242 -8.9453125 14.0234375 C-8.49542969 13.270625 -8.04554687 12.5178125 -7.58203125 11.7421875 C-7.10121094 10.96101562 -6.62039062 10.17984375 -6.125 9.375 C-5.65191406 8.58609375 -5.17882812 7.7971875 -4.69140625 6.984375 C-1.2072849 1.2072849 -1.2072849 1.2072849 0 0 Z " fill="#ADD0E9" transform="translate(35,2)"/>
<path d="M0 0 C5.04065437 4.29938167 8.70373331 9.7759087 11 16 C10.75739949 19.70639663 10.64889088 21.35110912 8 24 C7.89042969 23.22914062 7.78085938 22.45828125 7.66796875 21.6640625 C7.50941406 20.66117188 7.35085937 19.65828125 7.1875 18.625 C7.03667969 17.62726562 6.88585937 16.62953125 6.73046875 15.6015625 C6.21227702 12.6712636 6.21227702 12.6712636 3 11 C1.8125 7.875 1.8125 7.875 1 5 C-0.32 5.33 -1.64 5.66 -3 6 C-1.125 1.125 -1.125 1.125 0 0 Z " fill="#BCEBFB" transform="translate(82,42)"/>
<path d="M0 0 C10 11.53846154 10 11.53846154 10 17 C9.401875 16.835 8.80375 16.67 8.1875 16.5 C5.88655664 15.8885876 5.88655664 15.8885876 3 16 C2.67 16 2.34 16 2 16 C2 13.36 2 10.72 2 8 C1.01 7.67 0.02 7.34 -1 7 C-0.67 4.69 -0.34 2.38 0 0 Z " fill="#0E97EE" transform="translate(106,0)"/>
<path d="M0 0 C2 3 2 3 1.4375 6.5 C1.293125 7.655 1.14875 8.81 1 10 C2.2488427 11.5833253 2.2488427 11.5833253 4 13 C5.69918349 16.5944266 7.21814312 20.09071558 8 24 C7.34 24.33 6.68 24.66 6 25 C4.65078948 22.63285833 3.32085691 20.25789725 2 17.875 C1.6184375 17.20984375 1.236875 16.5446875 0.84375 15.859375 C-1.41517282 11.74490844 -2.56687032 8.81839771 -2 4 C-1 1.625 -1 1.625 0 0 Z " fill="#A5C9E1" transform="translate(5,53)"/>
<path d="M0 0 C3.62498334 -0.02893932 7.24993713 -0.04677792 10.875 -0.0625 C12.42380859 -0.07506836 12.42380859 -0.07506836 14.00390625 -0.08789062 C14.99003906 -0.09111328 15.97617188 -0.09433594 16.9921875 -0.09765625 C18.35899658 -0.10551147 18.35899658 -0.10551147 19.75341797 -0.11352539 C22 0 22 0 24 1 C23.67 1.66 23.34 2.32 23 3 C17.68694445 4.09853814 12.47016387 4.12273961 7.0625 4.0625 C6.28326172 4.05798828 5.50402344 4.05347656 4.70117188 4.04882812 C2.80074732 4.03716908 0.90036294 4.01923877 -1 4 C-0.67 2.68 -0.34 1.36 0 0 Z " fill="#42A3E4" transform="translate(60,40)"/>
<path d="M0 0 C3.57452595 3.33769495 5.73579257 7.31006349 8.1875 11.5 C8.65091797 12.27214844 9.11433594 13.04429688 9.59179688 13.83984375 C10.02943359 14.58363281 10.46707031 15.32742187 10.91796875 16.09375 C11.31781982 16.77115234 11.7176709 17.44855469 12.12963867 18.14648438 C13 20 13 20 13 23 C12.01 23 11.02 23 10 23 C9.34 20.36 8.68 17.72 8 15 C7.34 15 6.68 15 6 15 C0.44419134 5.77448747 0.44419134 5.77448747 0 0 Z " fill="#4EA5DA" transform="translate(127,37)"/>
<path d="M0 0 C0.99 0 1.98 0 3 0 C12 16.36893204 12 16.36893204 12 19 C12.99 19.33 13.98 19.66 15 20 C15.33 22.31 15.66 24.62 16 27 C12.23720853 22.66841447 9.60124236 17.9490939 6.875 12.9375 C6.43285156 12.13505859 5.99070312 11.33261719 5.53515625 10.50585938 C3.62684352 7.03226898 1.75565337 3.55367769 0 0 Z " fill="#1995E9" transform="translate(37,0)"/>
<path d="M0 0 C3.13355571 2.89461355 5.24842462 5.7713477 7.3125 9.5 C7.84488281 10.4384375 8.37726562 11.376875 8.92578125 12.34375 C10.07314683 15.18087217 10.12331476 16.21470493 9 19 C9 18.34 9 17.68 9 17 C8.01 16.67 7.02 16.34 6 16 C5.21430949 14.29767057 4.43764208 12.58866126 3.76171875 10.83984375 C2.97416826 8.79239661 2.97416826 8.79239661 1.3125 6.3125 C0 4 0 4 0 0 Z " fill="#6EC4FC" transform="translate(50,24)"/>
<path d="M0 0 C1.875 0.6875 1.875 0.6875 4 2 C4.68753301 3.65816784 5.35561283 5.32459336 6 7 C6.99 7.33 7.98 7.66 9 8 C9.94921875 10.28515625 9.94921875 10.28515625 10.6875 13.0625 C11.06455078 14.44115234 11.06455078 14.44115234 11.44921875 15.84765625 C11.63097656 16.55792969 11.81273437 17.26820312 12 18 C11.34 18.33 10.68 18.66 10 19 C8.32992313 16.02273264 6.66451428 13.0428803 5 10.0625 C4.28457031 8.78729492 4.28457031 8.78729492 3.5546875 7.48632812 C3.10351562 6.67744141 2.65234375 5.86855469 2.1875 5.03515625 C1.76855469 4.2862915 1.34960938 3.53742676 0.91796875 2.76586914 C0 1 0 1 0 0 Z " fill="#AACBE4" transform="translate(12,78)"/>
<path d="M0 0 C0.66 0 1.32 0 2 0 C2 0.99 2 1.98 2 3 C2.99 3 3.98 3 5 3 C5 2.34 5 1.68 5 1 C5.66 1 6.32 1 7 1 C5.8141763 4.37503669 4.72426311 6.64722731 2 9 C1.34 8.34 0.68 7.68 0 7 C-0.99 7.33 -1.98 7.66 -3 8 C-3 6.02 -3 4.04 -3 2 C-2.01 2.33 -1.02 2.66 0 3 C0 2.01 0 1.02 0 0 Z " fill="#D2E8F4" transform="translate(83,65)"/>
<path d="M0 0 C2.27034075 2.94050157 4.30412051 5.96058433 6.25 9.125 C7.06210938 10.42824219 7.06210938 10.42824219 7.890625 11.7578125 C8.25671875 12.49773437 8.6228125 13.23765625 9 14 C8.67 14.66 8.34 15.32 8 16 C7.01 15.67 6.02 15.34 5 15 C5 14.01 5 13.02 5 12 C4.01 11.67 3.02 11.34 2 11 C0.60955102 7.12137916 0 4.13537997 0 0 Z " fill="#A1CDEE" transform="translate(71,60)"/>
<path d="M0 0 C0.66 0 1.32 0 2 0 C0.44584521 5.9057882 -2.59534467 10.97738893 -6 16 C-6.33 16 -6.66 16 -7 16 C-6.33161954 8.9151671 -6.33161954 8.9151671 -3 6 C-2.28552357 3.89667109 -2.28552357 3.89667109 -2 2 C-1.34 2 -0.68 2 0 2 C0 1.34 0 0.68 0 0 Z " fill="#3E6F8D" transform="translate(135,66)"/>
<path d="M0 0 C3 1 3 1 4.09765625 2.9609375 C4.41605469 3.75757813 4.73445313 4.55421875 5.0625 5.375 C6.21523735 8.21749291 7.28043703 10.42065555 9 13 C9 13.99 9 14.98 9 16 C9.66 16 10.32 16 11 16 C10.67 17.32 10.34 18.64 10 20 C7.82563639 16.73845459 5.84039151 13.38908501 3.875 10 C3.50246094 9.3709375 3.12992187 8.741875 2.74609375 8.09375 C0 3.34592491 0 3.34592491 0 0 Z " fill="#2495D7" transform="translate(84,41)"/>
<path d="M0 0 C1.76020069 3.52040139 1.07153604 7.30064938 0 11 C-1.82974736 13.21602736 -3.56526436 14.39411054 -6 16 C-3.10933941 4.29384966 -3.10933941 4.29384966 0 0 Z " fill="#9FC9E6" transform="translate(23,22)"/>
<path d="M0 0 C0.66 0 1.32 0 2 0 C0.5143761 4.00375642 -1.36863385 7.61421847 -3.5 11.3125 C-4.1084375 12.38113281 -4.716875 13.44976562 -5.34375 14.55078125 C-6.16359375 15.76314453 -6.16359375 15.76314453 -7 17 C-7.66 17 -8.32 17 -9 17 C-8.37240135 14.07120629 -7.41377341 11.63904371 -6 9 C-5.34 9 -4.68 9 -4 9 C-3.566875 7.329375 -3.566875 7.329375 -3.125 5.625 C-2 2 -2 2 0 0 Z " fill="#5E9BC1" transform="translate(79,43)"/>
<path d="M0 0 C2.0245738 1.93254772 3.42105792 3.63158688 5 6 C5 6.99 5 7.98 5 9 C4.34 9 3.68 9 3 9 C2.67 9.99 2.34 10.98 2 12 C1.67 10.68 1.34 9.36 1 8 C0.34 8 -0.32 8 -1 8 C-0.67 5.36 -0.34 2.72 0 0 Z " fill="#73C2FB" transform="translate(41,8)"/>
<path d="M0 0 C1.02187326 3.79671609 1.34662047 7.04852667 1 11 C-1 13.9375 -1 13.9375 -3 16 C-4.57159226 12.85681547 -3.04018399 10.07066611 -2.0625 6.875 C-1.86720703 6.21628906 -1.67191406 5.55757813 -1.47070312 4.87890625 C-0.98695014 3.25066448 -0.49430925 1.62506818 0 0 Z " fill="#1B5D86" transform="translate(109,104)"/>
<path d="M0 0 C0.66 1.32 1.32 2.64 2 4 C-1.625 9.875 -1.625 9.875 -5 11 C-4.54546538 6.90918838 -4.20080221 4.66733517 -1 2 C-0.67 1.34 -0.34 0.68 0 0 Z " fill="#8EC0E4" transform="translate(28,17)"/>
<path d="M0 0 C1.17673198 2.35346396 1.16623866 3.8806033 1.1875 6.5 C1.20167969 7.2940625 1.21585938 8.088125 1.23046875 8.90625 C1 11 1 11 -1 13 C-3.32579101 9.51131349 -3.41865457 8.10281481 -3 4 C-1.5 1.625 -1.5 1.625 0 0 Z " fill="#9CCAEC" transform="translate(35,2)"/>
<path d="M0 0 C1.65322266 0.01740234 1.65322266 0.01740234 3.33984375 0.03515625 C4.99693359 0.04869141 4.99693359 0.04869141 6.6875 0.0625 C7.54214844 0.07410156 8.39679688 0.08570313 9.27734375 0.09765625 C9.27734375 0.42765625 9.27734375 0.75765625 9.27734375 1.09765625 C5.64734375 1.42765625 2.01734375 1.75765625 -1.72265625 2.09765625 C-1.72265625 3.08765625 -1.72265625 4.07765625 -1.72265625 5.09765625 C-1.06265625 5.42765625 -0.40265625 5.75765625 0.27734375 6.09765625 C0.60734375 7.08765625 0.93734375 8.07765625 1.27734375 9.09765625 C0.61734375 9.75765625 -0.04265625 10.41765625 -0.72265625 11.09765625 C-1.71265625 7.79765625 -2.70265625 4.49765625 -3.72265625 1.09765625 C-2.72265625 0.09765625 -2.72265625 0.09765625 0 0 Z " fill="#6F6F6F" transform="translate(244.72265625,11.90234375)"/>
<path d="M0 0 C0.66 0.33 1.32 0.66 2 1 C0.68 1.33 -0.64 1.66 -2 2 C-2 2.66 -2 3.32 -2 4 C-3.58960328 5.80636736 -4.83852297 6.91926148 -7 8 C-7.33 8.66 -7.66 9.32 -8 10 C-8.99 10.33 -9.98 10.66 -11 11 C-9.14341452 6.44292656 -5.95248793 3.22727813 -1.8125 0.625 C-1.214375 0.41875 -0.61625 0.2125 0 0 Z " fill="#5D5D5D" transform="translate(537,70)"/>
<path d="M0 0 C0.33 0 0.66 0 1 0 C1.36539443 4.28577219 0.48423598 6.34492062 -2 9.8125 C-2.556875 10.60269531 -3.11375 11.39289062 -3.6875 12.20703125 C-4.120625 12.79871094 -4.55375 13.39039063 -5 14 C-5.66 13.67 -6.32 13.34 -7 13 C-6 10 -6 10 -4.625 8.1875 C-2.70820566 5.60719993 -1.38196292 2.89554135 0 0 Z " fill="#8FC1E6" transform="translate(13,43)"/>
<path d="M0 0 C0.66 0.33 1.32 0.66 2 1 C0.625 3.5 0.625 3.5 -1 6 C-1.66 6 -2.32 6 -3 6 C-4.62514468 7.45833358 -4.62514468 7.45833358 -6 9 C-6.33 8.34 -6.66 7.68 -7 7 C-4.78071806 4.09197539 -3.07030857 2.04687238 0 0 Z " fill="#575757" transform="translate(477,38)"/>
<path d="M0 0 C0.99 0 1.98 0 3 0 C2.67 1.98 2.34 3.96 2 6 C0.68 6.33 -0.64 6.66 -2 7 C-1.125 1.125 -1.125 1.125 0 0 Z " fill="#15567D" transform="translate(86,73)"/>
<path d="M0 0 C1 3 1 3 0.25 5.625 C-1 8 -1 8 -4 9 C-4 9.99 -4 10.98 -4 12 C-4.66 12 -5.32 12 -6 12 C-4.43358249 7.69235185 -2.31663844 3.93828536 0 0 Z " fill="#C1E6FA" transform="translate(78,48)"/>
<path d="M0 0 C1.32 0 2.64 0 4 0 C4 1.98 4 3.96 4 6 C4.99 6.33 5.98 6.66 7 7 C6.67 7.99 6.34 8.98 6 10 C3.25722422 6.80009492 1.3697164 3.99500618 0 0 Z " fill="#B2D3E9" transform="translate(28,106)"/>
<path d="M0 0 C3.09592835 3.5087188 4.74194623 6.49197399 6 11 C5.34 11 4.68 11 4 11 C0 4.5 0 4.5 0 0 Z " fill="#49ADE6" transform="translate(116,17)"/>
<path d="M0 0 C4.42857143 5.14285714 4.42857143 5.14285714 5 9 C4.01 9 3.02 9 2 9 C0.50178941 5.62902617 0 3.79557881 0 0 Z " fill="#409CD5" transform="translate(122,28)"/>
<path d="M0 0 C2.74277578 3.19990508 4.6302836 6.00499382 6 10 C5.01 10 4.02 10 3 10 C0.96564469 6.27034861 0 4.33094958 0 0 Z " fill="#51ABDF" transform="translate(110,7)"/>
<path d="M0 0 C0.33 0 0.66 0 1 0 C1 2.31 1 4.62 1 7 C-0.98 7.99 -0.98 7.99 -3 9 C-2.44271087 5.65626525 -1.64826111 2.96687001 0 0 Z " fill="#1A5B80" transform="translate(92,62)"/>
<path d="M0 0 C4 2 4 2 5.3125 4.4375 C6 7 6 7 5 10 C3.35 6.7 1.7 3.4 0 0 Z " fill="#B6D5E7" transform="translate(12,78)"/>
<path d="M0 0 C1.13643966 3.40931897 0.86747764 4.00335456 -0.4375 7.1875 C-0.72496094 7.90292969 -1.01242187 8.61835937 -1.30859375 9.35546875 C-1.53675781 9.89816406 -1.76492188 10.44085938 -2 11 C-2.66 10.01 -3.32 9.02 -4 8 C-3.06810009 4.89366697 -1.80806372 2.71209558 0 0 Z " fill="#797979" transform="translate(306,60)"/>
<path d="M0 0 C0.33 0.66 0.66 1.32 1 2 C0.0625 4.125 0.0625 4.125 -1 6 C-1.99 6 -2.98 6 -4 6 C-3.67 4.35 -3.34 2.7 -3 1 C-2.01 0.67 -1.02 0.34 0 0 Z " fill="#17587B" transform="translate(139,60)"/>
<path d="M0 0 C0.66 0 1.32 0 2 0 C0.7508258 3.45925163 -0.67527795 6.14693203 -3 9 C-3 7.02 -3 5.04 -3 3 C-2.01 3 -1.02 3 0 3 C0 2.01 0 1.02 0 0 Z " fill="#487F9F" transform="translate(114,103)"/>
<path d="M0 0 C0.99 0.33 1.98 0.66 3 1 C1.92598892 3.91517292 1.22189824 5.77810176 -1 8 C-0.67 5.36 -0.34 2.72 0 0 Z " fill="#3C6F8C" transform="translate(120,90)"/>
<path d="M0 0 C2.31 0.33 4.62 0.66 7 1 C7 1.33 7 1.66 7 2 C2.59085217 3.10228696 -1.48382401 3.07654536 -6 3 C-6 2.67 -6 2.34 -6 2 C-4.02 2 -2.04 2 0 2 C0 1.34 0 0.68 0 0 Z " fill="#8A8A8A" transform="translate(560,74)"/>
<path d="M0 0 C4 4.75 4 4.75 4 7 C2.68 6.67 1.36 6.34 0 6 C0 4.02 0 2.04 0 0 Z " fill="#4AA4DD" transform="translate(106,0)"/>
<path d="" fill="#FFFFFF" transform="translate(0,0)"/>
<path d="" fill="#FFFFFF" transform="translate(0,0)"/>
<path d="" fill="#FFFFFF" transform="translate(0,0)"/>
<path d="" fill="#FFFFFF" transform="translate(0,0)"/>
<path d="" fill="#FFFFFF" transform="translate(0,0)"/>
<path d="" fill="#FFFFFF" transform="translate(0,0)"/>
<path d="" fill="#FFFFFF" transform="translate(0,0)"/>
<path d="" fill="#FFFFFF" transform="translate(0,0)"/>
<path d="" fill="#FFFFFF" transform="translate(0,0)"/>
<path d="" fill="#FFFFFF" transform="translate(0,0)"/>
<path d="" fill="#FFFFFF" transform="translate(0,0)"/>
<path d="" fill="#FFFFFF" transform="translate(0,0)"/>
<path d="" fill="#FFFFFF" transform="translate(0,0)"/>
<path d="" fill="#FFFFFF" transform="translate(0,0)"/>
<path d="" fill="#FFFFFF" transform="translate(0,0)"/>
<path d="" fill="#FFFFFF" transform="translate(0,0)"/>
<path d="" fill="#FFFFFF" transform="translate(0,0)"/>
<path d="" fill="#FFFFFF" transform="translate(0,0)"/>
<path d="" fill="#FFFFFF" transform="translate(0,0)"/>
<path d="" fill="#FFFFFF" transform="translate(0,0)"/>
<path d="" fill="#FFFFFF" transform="translate(0,0)"/>
<path d="" fill="#FFFFFF" transform="translate(0,0)"/>
<path d="" fill="#FFFFFF" transform="translate(0,0)"/>
<path d="" fill="#FFFFFF" transform="translate(0,0)"/>
<path d="" fill="#FFFFFF" transform="translate(0,0)"/>
<path d="" fill="#FFFFFF" transform="translate(0,0)"/>
<path d="" fill="#FFFFFF" transform="translate(0,0)"/>
<path d="" fill="#FFFFFF" transform="translate(0,0)"/>
<path d="" fill="#FFFFFF" transform="translate(0,0)"/>
<path d="" fill="#FFFFFF" transform="translate(0,0)"/>
<path d="" fill="#FFFFFF" transform="translate(0,0)"/>
<path d="" fill="#FFFFFF" transform="translate(0,0)"/>
<path d="" fill="#FFFFFF" transform="translate(0,0)"/>
<path d="" fill="#FFFFFF" transform="translate(0,0)"/>
<path d="" fill="#FFFFFF" transform="translate(0,0)"/>
<path d="" fill="#FFFFFF" transform="translate(0,0)"/>
<path d="" fill="#FFFFFF" transform="translate(0,0)"/>
<path d="" fill="#FFFFFF" transform="translate(0,0)"/>
<path d="" fill="#FFFFFF" transform="translate(0,0)"/>
<path d="" fill="#FFFFFF" transform="translate(0,0)"/>
<path d="" fill="#FFFFFF" transform="translate(0,0)"/>
<path d="" fill="#FFFFFF" transform="translate(0,0)"/>
<path d="" fill="#FFFFFF" transform="translate(0,0)"/>
<path d="" fill="#FFFFFF" transform="translate(0,0)"/>
<path d="" fill="#FFFFFF" transform="translate(0,0)"/>
<path d="" fill="#FFFFFF" transform="translate(0,0)"/>
<path d="" fill="#FFFFFF" transform="translate(0,0)"/>
<path d="" fill="#FFFFFE" transform="translate(0,0)"/>
<path d="" fill="#FFFFFE" transform="translate(0,0)"/>
</svg>
